<svg width="1920" height="828" viewBox="0 0 1920 828" fill="none" xmlns="http://www.w3.org/2000/svg">
<g opacity="0.3">
<path d="M652.673 547.273C643.202 547.273 633.983 546.826 625.124 545.935C606.543 544.064 589.378 540.222 574.102 534.516C557.684 528.386 543.284 520.031 531.299 509.687C507.212 488.896 495.161 463.996 483.506 439.916C481.216 435.187 478.849 430.298 476.445 425.554C460.045 393.221 439.255 364.898 412.892 338.968C360.303 287.243 286.344 243.1 199.009 211.31C98.0064 174.547 -10.5879 156.234 -106.772 159.745C-163.304 161.81 -237.999 181.444 -271.382 214.975C-291.193 234.875 -292.791 256.959 -275.999 278.836L-276.332 278.929C-285.137 267.455 -288.973 255.953 -287.731 244.742C-286.591 234.457 -281.198 224.403 -271.697 214.861C-256.587 199.682 -231.668 186.23 -199.633 175.956C-170.032 166.464 -137.063 160.628 -106.794 159.523C-56.4578 157.687 -2.92279 161.762 52.3233 171.637C102.403 180.59 151.82 193.873 199.199 211.118C286.586 242.926 360.589 287.093 413.208 338.849C439.585 364.797 460.386 393.135 476.797 425.486C479.204 430.23 481.571 435.121 483.857 439.849C495.502 463.912 507.545 488.794 531.6 509.555C554.862 529.636 586.351 541.801 625.186 545.71C678.966 551.126 744.274 539.8 799.879 515.411C880.011 480.266 935.624 429.111 989.408 379.643C998.836 370.971 1008.58 362.005 1018.23 353.347C1043.29 330.865 1077.22 301.732 1117.55 275.779C1158.77 249.25 1200.65 229.759 1245.6 216.19C1273.12 207.885 1302.28 202.289 1332.27 199.559C1359.97 197.036 1389.3 196.88 1419.43 199.09C1471.11 202.883 1526.78 213.597 1589.64 231.842C1713.42 267.77 1837.05 311.379 1957.12 361.459C2071.25 409.059 2183.18 462.922 2289.8 521.546L2289.55 521.709C2068.53 400.183 1832.99 302.725 1589.48 232.04C1451.91 192.105 1342.69 187.13 1245.77 216.386C1147.17 246.148 1078.29 299.859 1018.54 353.469C1008.89 362.124 999.143 371.09 989.716 379.761C935.917 429.248 880.286 480.418 800.099 515.587C774.187 526.953 745.036 535.817 715.801 541.222C700.357 544.077 685.005 545.944 670.166 546.771C664.252 547.108 658.415 547.273 652.673 547.273Z" fill="#FFE492"/>
<path d="M661.934 534.943C637.781 534.943 615.408 532.181 595.414 526.728C573.118 520.648 553.878 511.226 538.226 498.727C536.841 497.619 535.466 496.475 534.14 495.321C510.309 474.62 497.723 450.044 485.555 426.276C483.093 421.473 480.55 416.504 477.971 411.683C462.607 382.978 444.108 357.677 421.409 334.341C418.613 331.468 415.719 328.589 412.799 325.784C359.436 274.504 284.877 230.919 197.182 199.742C95.4503 163.606 -13.4517 146.051 -109.464 150.31C-165.586 152.826 -239.936 172.782 -273.462 206.055C-293.537 225.98 -295.809 248.107 -280.039 270.048L-280.376 270.136C-288.642 258.637 -292.038 247.112 -290.466 235.888C-289.023 225.579 -283.41 215.503 -273.777 205.941C-258.513 190.789 -233.667 177.321 -201.933 166.994C-172.602 157.449 -139.776 151.446 -109.497 150.09C-59.2227 147.86 -5.62903 151.545 49.793 161.042C99.9937 169.645 149.645 182.602 197.365 199.552C285.111 230.748 359.711 274.359 413.107 325.668C416.027 328.474 418.925 331.356 421.721 334.231C444.434 357.583 462.945 382.896 478.315 411.617C480.898 416.438 483.441 421.406 485.903 426.212C498.068 449.965 510.643 474.523 534.441 495.196C535.763 496.345 537.137 497.49 538.519 498.595C570.865 524.432 615.309 534.943 662.047 534.943C662.304 534.943 662.557 534.943 662.813 534.943C662.52 534.941 662.227 534.943 661.934 534.943ZM671.904 534.789C715.355 533.449 760.192 523.417 798.657 508.494C881.629 476.172 941.261 426.249 998.932 377.972C1001.31 375.982 1003.68 373.996 1006.06 372.01C1011.27 367.652 1017.45 362.492 1023.76 357.29C1052.06 333.962 1086.32 306.82 1125.77 282.389C1167.74 256.393 1209.68 237.103 1253.97 223.413C1281.18 215.01 1309.94 209.091 1339.44 205.82C1366.78 202.788 1395.67 201.932 1425.3 203.273C1476.49 205.591 1531.53 214.378 1593.57 230.14C1654.06 245.483 1703.78 259.927 1750.05 275.594C1815.59 297.81 1878.02 323.407 1930.45 345.515C2052.34 397.062 2171.93 455.593 2285.91 519.485L2285.66 519.646C2171.69 455.763 2052.11 397.236 1930.24 345.695C1877.82 323.59 1815.4 297.997 1749.87 275.787C1703.62 260.125 1653.91 245.686 1593.43 230.347C1458.29 196.01 1350.47 193.868 1254.14 223.611C1154.15 254.513 1082.95 308.885 1024.06 357.422C1017.74 362.624 1011.57 367.782 1006.35 372.143C1003.98 374.126 1001.6 376.114 999.229 378.104C941.539 426.397 881.885 476.337 798.855 508.683C778.267 516.67 756.359 523.014 733.738 527.538C712.681 531.745 691.924 534.177 671.904 534.789Z" fill="#FFE492"/>
<path d="M672.145 522.896C669.24 522.896 666.352 522.859 663.487 522.782C639.356 522.141 617.024 518.815 597.113 512.891C575.338 506.412 556.472 496.817 541.043 484.368C539.672 483.259 538.306 482.112 536.987 480.958C513.423 460.358 500.314 436.11 487.64 412.663C484.998 407.776 482.265 402.722 479.495 397.818C463.373 369.209 444.386 344.111 421.442 321.09C418.602 318.243 415.664 315.388 412.699 312.606C358.563 261.772 283.403 218.747 195.35 188.181C92.8926 152.673 -16.3173 135.872 -112.161 140.881C-166.124 143.744 -240.259 162.562 -275.507 197.105C-295.871 217.063 -298.835 239.25 -284.08 261.268L-284.421 261.349C-292.152 249.814 -295.102 238.264 -293.196 227.019C-291.445 216.677 -285.597 206.575 -275.818 196.991C-260.392 181.874 -235.627 168.402 -204.197 158.027C-175.142 148.436 -142.466 142.27 -112.194 140.663C-61.9783 138.041 -8.32605 141.334 47.2682 150.452C97.5935 158.707 147.476 171.336 195.533 187.992C283.638 218.577 358.838 261.627 413.007 312.489C415.971 315.274 418.914 318.129 421.753 320.979C444.708 344.014 463.706 369.127 479.835 397.752C482.605 402.658 485.339 407.713 487.98 412.6C500.651 436.033 513.75 460.263 537.284 480.839C538.603 481.993 539.962 483.137 541.332 484.243C604.027 534.825 715.135 529.394 797.433 501.576C883.867 472.102 948.101 423.115 1010.22 375.742L1010.86 375.256C1016.87 370.664 1023.1 365.918 1029.29 361.231C1094.63 311.789 1166.45 260.977 1262.33 230.632C1289.25 222.13 1317.62 215.887 1346.63 212.077C1373.61 208.532 1402.07 206.976 1431.19 207.452C1481.97 208.279 1536.37 215.143 1597.51 228.435C1661.76 242.354 1710.12 255.148 1754.29 269.921C1817.23 291.013 1878.19 317.664 1931.98 341.179C2051.74 393.816 2169.51 453.111 2282.03 517.415L2281.77 517.573C2169.27 453.276 2051.51 393.987 1931.76 341.355C1877.98 317.845 1817.03 291.197 1754.11 270.113C1709.95 255.344 1661.62 242.554 1597.39 228.64C1464.86 199.828 1358.45 200.522 1262.5 230.823C1166.68 261.149 1094.89 311.939 1029.57 361.363C1023.38 366.05 1017.16 370.798 1011.14 375.388L1010.51 375.875C979.549 399.482 947.541 423.893 912.974 445.697C874.128 470.2 836.392 488.54 797.609 501.763C757.033 515.477 712.834 522.896 672.145 522.896Z" fill="#FFE492"/>
<path d="M2277.89 515.497C2166.85 450.786 2050.91 390.736 1933.29 337.014C1928.31 334.755 1923.32 332.486 1918.31 330.209C1867.37 307.047 1814.69 283.096 1758.36 264.438C1703.71 246.386 1648.32 235.349 1601.35 226.933C1471.69 203.559 1366.69 207.088 1270.88 238.035C1172.54 269.897 1096.33 322.797 1035.1 365.306C1031.43 367.857 1027.76 370.413 1024.09 372.971C1021.37 374.859 1018.66 376.748 1015.94 378.635C981.081 402.863 949.368 424.524 914.329 444.29C874.3 466.869 835.718 483.406 796.37 494.846C759.495 505.569 720.103 511.242 683.463 511.244C676.787 511.244 670.21 511.057 663.747 510.676C640.151 509.287 618.306 505.384 598.82 499.075C577.558 492.191 559.066 482.413 543.849 470.01C542.49 468.899 541.134 467.75 539.822 466.594C516.537 446.102 502.918 422.195 489.75 399.076C486.914 394.097 483.979 388.946 481.011 383.947C464.12 355.428 444.642 330.531 421.471 307.831C418.587 305.006 415.601 302.177 412.596 299.419C357.684 249.032 281.926 206.566 193.517 176.61C90.3347 141.73 -19.1792 125.689 -114.854 131.439C-180.261 135.447 -247.144 158.751 -277.504 188.106C-298.187 208.105 -301.855 230.363 -288.118 252.473L-288.463 252.55C-295.655 240.973 -298.162 229.388 -295.912 218.115C-293.842 207.735 -287.752 197.6 -277.815 187.989C-262.229 172.916 -237.544 159.444 -206.429 149.032C-177.652 139.401 -145.145 133.074 -114.891 131.221C-64.734 128.205 -11.0268 131.108 44.7396 139.848C95.1859 147.755 145.306 160.058 193.7 176.417C282.165 206.39 357.962 248.881 412.908 299.298C415.916 302.059 418.902 304.889 421.786 307.714C444.972 330.427 464.457 355.338 481.359 383.87C484.327 388.871 487.262 394.02 490.098 399.002C503.259 422.107 516.871 445.998 540.126 466.466C541.438 467.62 542.79 468.767 544.146 469.876C609.596 523.224 720.84 516.56 796.212 494.646C886.138 468.498 954.953 420.68 1015.67 378.489C1018.38 376.601 1021.1 374.712 1023.81 372.825C1027.48 370.267 1031.15 367.712 1034.83 365.16C1069.78 340.897 1104.29 317.318 1142.24 295.591C1185.87 270.603 1227.9 251.714 1270.71 237.841C1297.35 229.236 1325.31 222.669 1353.82 218.326C1380.47 214.264 1408.48 212.01 1437.09 211.623C1487.54 210.94 1541.31 215.88 1601.46 226.722C1648.45 235.142 1703.86 246.184 1758.54 264.246C1814.89 282.911 1867.58 306.869 1918.54 330.036C1923.54 332.312 1928.54 334.581 1933.52 336.84C2051.14 390.566 2167.1 450.623 2278.15 515.341L2277.89 515.497Z" fill="#FFE492"/>
<path d="M2274.01 513.423C2162.33 447.061 2048.22 386.247 1934.82 332.672C1928.04 329.467 1921.1 326.163 1914.38 322.969C1866.31 300.092 1816.6 276.437 1762.61 258.762C1708.69 241.175 1652.84 231.939 1605.31 225.224C1478.81 207.18 1375.2 213.542 1279.26 245.246C1187.75 275.596 1116.05 321.234 1046.72 365.369L1039.1 370.214C1033.09 374.042 1026.87 377.998 1020.74 381.879C951.34 425.761 881.863 466.889 795.132 487.925C774.086 493.03 752.475 496.567 730.894 498.445C707.719 500.459 685.208 500.488 663.982 498.529C640.928 496.4 619.578 491.929 600.525 485.239C579.79 477.959 561.668 468.002 546.667 455.648C545.315 454.53 543.971 453.379 542.67 452.225C519.671 431.854 505.561 408.3 491.916 385.52C488.871 380.437 485.72 375.18 482.54 370.075C464.864 341.645 444.903 316.948 421.512 294.574C418.588 291.778 415.558 288.971 412.505 286.235C356.82 236.295 280.465 194.388 191.693 165.042C87.7814 130.793 -22.0404 115.507 -117.55 122.003C-182.36 126.505 -248.939 149.971 -279.453 179.071C-300.48 199.121 -304.874 221.465 -292.159 243.687L-292.508 243.76C-299.161 232.132 -301.217 220.503 -298.619 209.196C-296.223 198.773 -289.88 188.598 -279.768 178.957C-264.012 163.934 -239.416 150.475 -208.631 140.032C-180.139 130.366 -147.808 123.888 -117.594 121.787C-67.4962 118.38 -13.734 120.891 42.2083 129.252C92.7791 136.812 143.13 148.787 191.865 164.85C280.689 194.212 357.087 236.145 412.806 286.114C415.858 288.852 418.892 291.661 421.816 294.457C445.221 316.842 465.194 341.553 482.877 369.998C486.057 375.103 489.208 380.362 492.253 385.445C505.89 408.212 519.993 431.755 542.967 452.102C544.264 453.251 545.608 454.4 546.957 455.519C610.832 508.124 716.964 506.647 794.989 487.722C881.651 466.704 951.098 425.591 1020.47 381.729C1026.6 377.848 1032.82 373.893 1038.83 370.064L1046.45 365.219C1080.48 343.556 1115.67 321.153 1153.89 300.312C1197.18 276.71 1238.13 258.634 1279.08 245.052C1305.44 236.339 1333.01 229.449 1361 224.575C1387.32 219.992 1414.9 217.038 1442.97 215.794C1493.21 213.568 1546.33 216.584 1605.39 225.009C1652.94 231.727 1708.82 240.966 1762.77 258.568C1816.8 276.25 1866.52 299.912 1914.61 322.795C1921.32 325.989 1928.26 329.291 1935.05 332.498C2048.45 386.077 2162.58 446.896 2274.26 513.264L2274.01 513.423Z" fill="#FFE492"/>
<path d="M2270.12 511.349C2159.41 444.25 2047.11 382.674 1936.35 328.334C1928.03 324.25 1919.49 320.004 1911.24 315.898C1865.76 293.268 1818.73 269.868 1766.85 253.092C1713.19 235.807 1657.08 228.443 1609.27 223.521C1486.28 210.663 1384.07 219.86 1287.63 252.462C1203.47 281.033 1134.37 321.525 1067.54 360.683C1060.51 364.803 1053.24 369.063 1046.15 373.191C1037.83 378.038 1031.47 381.721 1025.54 385.129C993.769 403.369 955.942 424.372 916.246 441.842C874.179 460.353 834.157 473.165 793.89 481.01C772.715 485.136 751.196 487.738 729.927 488.742C707.089 489.82 684.977 489.028 664.209 486.384C641.708 483.52 620.856 478.481 602.225 471.408C582.021 463.739 564.276 453.604 549.481 441.289C548.147 440.173 546.81 439.02 545.513 437.862C522.818 417.627 508.235 394.436 494.129 372.008C490.857 366.807 487.475 361.429 484.063 356.205C465.593 327.854 445.144 303.359 421.544 281.317C418.576 278.546 415.502 275.766 412.406 273.051C355.947 223.558 278.992 182.21 189.861 153.474C85.2272 119.855 -24.9023 105.328 -120.244 112.566C-174.493 116.775 -245.348 136.165 -281.351 169.991C-302.756 190.102 -307.893 212.547 -296.201 234.897L-296.549 234.963C-302.665 223.277 -304.262 211.596 -301.302 200.246C-298.568 189.77 -291.962 179.551 -281.659 169.872C-265.735 154.911 -241.23 141.474 -210.786 131.009C-182.58 121.314 -150.443 114.688 -120.288 112.348C-70.2482 108.549 -16.4274 110.669 39.6834 118.651C90.3752 125.862 140.961 137.512 190.033 153.28C279.215 182.032 356.215 223.404 412.707 272.926C415.803 275.64 418.88 278.425 421.848 281.198C445.459 303.252 465.919 327.759 484.401 356.124C487.815 361.35 491.197 366.727 494.469 371.929C508.565 394.346 523.144 417.524 545.813 437.736C547.11 438.892 548.444 440.043 549.778 441.157C602.917 485.391 694.133 500.211 793.776 480.797C884.014 463.217 957.624 423.815 1025.29 384.966C1031.22 381.558 1037.57 377.875 1045.89 373.028C1052.98 368.9 1060.25 364.641 1067.28 360.52C1100.18 341.242 1134.2 321.309 1170.49 302.644C1211.52 281.535 1249.78 265.056 1287.46 252.266C1313.57 243.439 1340.73 236.225 1368.19 230.827C1394.2 225.713 1421.35 222.061 1448.87 219.968C1498.98 216.16 1551.47 217.249 1609.34 223.299C1657.17 228.225 1713.31 235.591 1767.02 252.891C1818.93 269.679 1865.98 293.086 1911.47 315.722C1919.72 319.828 1928.26 324.074 1936.58 328.158C2047.35 382.505 2159.66 444.085 2270.38 511.189L2270.12 511.349Z" fill="#FFE492"/>
<path d="M2266.24 509.276C2156.48 441.435 2046.01 379.095 1937.87 323.993C1928.67 319.306 1919.23 314.386 1910.09 309.629C1866.56 286.969 1821.56 263.537 1771.09 247.417C1717.39 230.339 1661.16 224.891 1613.23 221.813C1495.81 214.071 1392.04 226.456 1296 259.674C1219.53 286.244 1153.98 321.79 1090.58 356.166C1077.78 363.109 1064.54 370.29 1051.67 377.134C1043.79 381.323 1036.82 385.001 1030.33 388.378C1000.17 404.065 960.055 424.179 917.186 440.616C874.112 457.131 833.372 468.082 792.639 474.094C748.213 480.652 703.874 480.7 664.42 474.237C642.484 470.642 622.126 465.038 603.912 457.578C584.248 449.523 566.88 439.212 552.286 426.935C550.964 425.816 549.637 424.661 548.348 423.503C525.975 403.422 510.938 380.612 496.399 358.554C492.882 353.218 489.247 347.702 485.579 342.341C466.299 314.065 445.363 289.769 421.572 268.068C418.561 265.32 415.442 262.564 412.302 259.874C355.07 210.828 277.518 170.037 188.028 141.915C82.6723 108.928 -27.765 95.1584 -122.942 103.138C-187.443 108.664 -251.846 131.866 -283.195 160.871C-305.011 181.055 -310.906 203.617 -300.244 226.117L-300.595 226.176C-306.168 214.419 -307.304 202.677 -303.974 191.278C-300.896 180.742 -294.007 170.471 -283.503 160.75C-267.41 145.86 -243.001 132.454 -212.912 121.98C-185.003 112.265 -153.067 105.494 -122.993 102.918C-73.012 98.7268 -19.1325 100.457 37.1505 108.058C87.9668 114.922 138.787 126.246 188.196 141.717C277.737 169.857 355.334 210.67 412.603 259.747C415.743 262.437 418.861 265.195 421.876 267.945C445.678 289.659 466.625 313.966 485.916 342.255C489.584 347.616 493.219 353.135 496.736 358.471C511.268 380.517 526.297 403.316 548.648 423.377C549.938 424.535 551.26 425.687 552.583 426.805C604.81 470.753 694.516 488.35 792.551 473.881C881.924 460.688 959.535 424.909 1030.09 388.213C1036.57 384.836 1043.55 381.16 1051.42 376.971C1064.29 370.127 1077.53 362.948 1090.33 356.005C1153.74 321.622 1219.31 286.068 1295.82 259.487C1321.7 250.534 1348.46 242.999 1375.37 237.086C1401.1 231.433 1427.81 227.081 1454.75 224.151C1504.84 218.703 1556.7 217.868 1613.27 221.597C1661.22 224.677 1717.5 230.128 1771.26 247.225C1821.76 263.357 1866.78 286.797 1910.33 309.466C1919.47 314.223 1928.91 319.141 1938.11 323.828C2046.25 378.934 2156.74 441.279 2266.5 509.124L2266.24 509.276Z" fill="#FFE492"/>
<path d="M2215.33 827.182C2106.55 754.013 1997.89 686.701 1892.37 627.113C1882.68 621.637 1872.7 615.839 1863.06 610.231C1821.12 585.853 1777.76 560.644 1728.31 544.001C1674.38 525.938 1618.1 522.197 1570.16 520.92C1457.18 517.689 1354.86 534.012 1257.35 570.824C1188.97 596.763 1128.01 629.593 1069.05 661.34C1048.78 672.257 1029.64 682.568 1010.16 692.635C1002.24 696.733 995.026 700.415 988.101 703.889C943.418 726.28 906.243 742.469 871.105 754.835C827.023 770.35 785.569 780.049 744.37 784.483C728.388 786.202 712.464 787.059 696.83 787.059C669.115 787.059 642.298 784.372 617.61 779.051C572.931 769.421 536.078 751.651 508.074 726.235C506.755 725.03 505.439 723.798 504.164 722.567C482.132 701.331 466.674 677.43 451.725 654.313C447.936 648.457 444.023 642.403 440.077 636.516C419.972 606.422 398.545 580.72 374.582 557.939C371.527 555.034 368.365 552.12 365.18 549.276C307.175 497.432 229.022 454.514 139.173 425.165C33.0954 390.652 -77.646 376.769 -172.658 386.073C-237.427 392.547 -299.972 416.829 -331.992 447.934C-354.25 469.555 -360.926 493.766 -351.305 517.952L-351.66 518.01C-356.683 505.381 -357.35 492.78 -353.639 480.557C-350.202 469.243 -343.024 458.225 -332.296 447.805C-316.035 432.008 -291.731 417.754 -262.009 406.581C-234.4 396.201 -202.688 388.837 -172.713 385.84C-122.79 380.951 -68.8524 382.379 -12.4008 390.084C38.5401 397.037 89.591 408.769 139.341 424.954C229.242 454.322 307.439 497.263 365.481 549.137C368.665 551.983 371.827 554.898 374.886 557.805C398.864 580.598 420.302 606.314 440.414 636.419C444.36 642.306 448.277 648.363 452.062 654.219C467.004 677.324 482.455 701.216 504.468 722.433C505.743 723.661 507.055 724.894 508.374 726.097C560.667 773.561 646.662 794.756 744.308 784.248C837.261 774.244 919.591 737.918 987.874 703.701C994.795 700.228 1002.01 696.548 1009.93 692.45C1029.4 682.383 1048.55 672.074 1068.82 661.156C1127.78 629.403 1188.75 596.568 1257.16 570.62C1282.85 560.921 1309.22 552.538 1335.53 545.699C1361.02 539.077 1387.29 533.688 1413.61 529.684C1463.81 522.049 1515.03 519.105 1570.18 520.683C1618.16 521.96 1674.49 525.706 1728.48 543.79C1777.97 560.444 1821.35 585.665 1863.3 610.052C1872.95 615.66 1882.92 621.458 1892.61 626.932C1998.14 686.525 2106.8 753.844 2215.59 827.018L2215.33 827.182Z" fill="#FFE492"/>
<path d="M2258.47 505.129C2149.15 434.809 2045.28 372.72 1940.93 315.313C1930.97 309.836 1921.17 304.242 1910.79 298.321C1870.22 275.171 1828.26 251.236 1779.58 236.071C1724.98 219.145 1666.23 217.736 1621.15 218.401C1513.31 219.783 1412.43 238.004 1312.75 274.104C1252.94 295.868 1197.72 322.005 1144.32 347.283C1116.25 360.568 1089.74 373.114 1062.71 385.021C1054.68 388.558 1047.23 391.781 1039.92 394.874C994.63 414.017 956.231 427.767 919.071 438.148C873.967 450.749 831.797 457.98 790.152 460.256C768.754 461.425 747.503 461.205 726.988 459.603C705.268 457.905 684.361 454.65 664.85 449.928C621.603 439.46 585.626 422.063 557.915 398.216C556.607 397.084 555.303 395.926 554.035 394.773C532.373 375.071 516.526 353.093 501.2 331.839C497.111 326.168 492.883 320.303 488.629 314.602C467.681 286.453 445.771 262.56 421.643 241.557C418.539 238.858 415.333 236.15 412.113 233.509C353.335 185.356 274.584 145.684 184.375 118.781C101.114 94.0532 15.2515 81.1511 -63.4847 81.1511C-85.7436 81.1511 -107.416 82.1813 -128.32 84.266C-192.308 90.7732 -254.461 113.617 -286.668 142.463C-309.399 162.826 -316.885 185.676 -308.315 208.541L-308.674 208.589C-313.148 196.658 -313.334 184.764 -309.231 173.24C-305.427 162.557 -297.938 152.16 -286.975 142.34C-270.546 127.624 -246.356 114.317 -217.015 103.854C-189.318 93.9761 -158.669 87.1277 -128.385 84.0503C-78.5218 79.0752 -24.5251 80.024 32.0987 86.8658C83.1605 93.034 134.449 103.704 184.537 118.581C274.796 145.499 353.595 185.193 412.41 233.374C415.634 236.016 418.844 238.726 421.947 241.427C446.086 262.441 468.008 286.345 488.966 314.507C493.22 320.209 497.452 326.073 501.541 331.746C516.86 352.991 532.699 374.961 554.343 394.647C555.611 395.799 556.915 396.957 558.219 398.086C610.04 442.679 694.561 465.256 790.123 460.034C886.82 454.749 974.302 422.336 1039.72 394.689C1047.02 391.596 1054.47 388.374 1062.5 384.838C1089.53 372.936 1116.03 360.388 1144.1 347.105C1197.51 321.825 1252.73 295.681 1312.56 273.91C1363.89 255.324 1414.25 241.779 1466.53 232.498C1516.96 223.548 1567.54 218.863 1621.15 218.176C1651.74 217.725 1676.7 218.509 1699.69 220.64C1729.38 223.391 1755.57 228.373 1779.75 235.871C1828.48 251.049 1870.46 274.997 1911.05 298.158C1921.43 304.08 1931.23 309.671 1941.18 315.148C2045.54 372.557 2149.42 434.65 2258.74 504.975L2258.47 505.129Z" fill="#FFE492"/>
<path d="M2254.58 503.055C2146.27 431.965 2044.17 369.136 1942.45 310.972C1932.39 305.218 1922.47 299.289 1911.97 293.013C1872.61 269.499 1831.91 245.18 1783.82 230.396C1728.77 213.549 1670.09 214.223 1625.11 216.69C1523.35 222.081 1423.91 243.221 1321.12 281.313C1270.48 300.172 1222.26 321.754 1175.63 342.627C1138.76 359.126 1103.95 374.712 1068.23 388.957C1060.16 392.18 1052.24 395.262 1044.71 398.115C999.335 415.294 958.544 427.98 920.009 436.9C873.868 447.581 830.984 452.957 788.907 453.331C767.498 453.52 746.331 452.358 726.006 449.873C704.7 447.266 684.196 443.192 665.063 437.759C623.3 425.9 588.195 407.763 560.726 383.85C559.436 382.721 558.139 381.56 556.875 380.4C535.62 360.938 519.429 339.424 503.769 318.619C499.339 312.733 494.755 306.644 490.15 300.725C468.345 272.629 445.947 248.938 421.676 228.294C418.529 225.619 415.279 222.936 412.014 220.318C352.463 172.613 273.111 133.499 182.544 107.206C75.0268 76.1232 -36.3338 64.6233 -131.016 74.8244C-194.176 81.7476 -255.915 104.65 -288.301 133.169C-311.546 153.639 -319.863 176.661 -312.359 199.749L-312.718 199.791C-316.632 187.756 -316.331 175.769 -311.821 164.166C-307.633 153.395 -299.825 142.923 -288.605 133.043C-272.015 118.433 -247.946 105.192 -219 94.751C-191.622 84.8758 -161.222 77.9107 -131.082 74.6065C-81.2731 69.2418 -27.2214 69.7965 29.571 76.2597C80.7574 82.0844 132.277 92.4286 182.701 107.006C273.324 133.312 352.719 172.45 412.304 220.184C415.572 222.801 418.826 225.487 421.973 228.164C446.258 248.819 468.664 272.521 490.479 300.628C495.089 306.547 499.669 312.636 504.102 318.525C519.755 339.321 535.939 360.826 557.179 380.275C558.443 381.433 559.74 382.593 561.026 383.72C613.393 429.305 694.32 453.952 788.899 453.106C865.642 452.424 946.866 434.888 1044.52 397.923C1052.04 395.07 1059.95 391.99 1068.02 388.768C1103.73 374.525 1138.55 358.944 1175.4 342.445C1222.04 321.569 1270.27 299.983 1320.93 281.119C1372.75 261.913 1422.3 247.375 1472.42 236.67C1523.18 225.826 1573.12 219.215 1625.08 216.464C1670.1 213.992 1728.85 213.32 1783.99 230.193C1832.13 244.995 1872.85 269.325 1912.23 292.85C1922.73 299.126 1932.65 305.052 1942.71 310.805C2044.43 368.971 2146.53 431.804 2254.85 502.899L2254.58 503.055Z" fill="#FFE492"/>
<path d="M2250.7 500.981C2143.39 429.118 2043.07 365.545 1943.98 306.633C1933.93 300.652 1923.99 294.437 1913.48 287.858C1875.24 263.922 1835.69 239.173 1788.07 224.723C1732.5 207.938 1673.91 210.7 1629.08 214.982C1533.32 223.952 1438.13 247.322 1329.5 288.527C1288.75 304.051 1248.93 321.08 1210.43 337.549C1163.66 357.55 1119.49 376.444 1073.75 392.899C1065.51 395.867 1057.35 398.715 1049.51 401.361C1003.32 416.934 961.265 428.152 920.949 435.654C898.368 439.856 876.076 442.901 854.693 444.704C831.884 446.626 809.332 447.2 787.663 446.412C743.698 444.812 702.522 437.807 665.281 425.594C625.061 412.403 590.832 393.529 563.546 369.49C562.263 368.352 560.977 367.19 559.721 366.036C538.92 346.86 522.439 325.857 506.504 305.548C501.679 299.399 496.692 293.042 491.676 286.856C468.992 258.806 446.107 235.316 421.712 215.039C418.52 212.387 415.223 209.727 411.918 207.136C351.593 159.876 271.644 121.321 180.718 95.6425C72.4825 65.1956 -39.1822 54.453 -133.707 65.3915C-234.918 77.2854 -333.542 128.676 -316.395 190.963L-316.758 190.998C-321.048 175.417 -318.535 160.067 -309.29 145.371C-300.848 131.949 -286.995 119.318 -268.114 107.831C-250.56 97.1504 -229.499 87.9289 -205.522 80.4223C-182.717 73.2834 -157.908 68.0089 -133.78 65.1736C-84.0299 59.4171 -29.9196 59.5822 27.045 65.6667C78.356 71.1459 130.11 81.1642 180.872 95.4443C271.849 121.141 351.846 159.717 412.207 207.004C415.516 209.597 418.813 212.257 422.008 214.912C446.414 235.197 469.311 258.701 492.006 286.761C497.022 292.947 502.009 299.305 506.834 305.455C522.765 325.758 539.239 346.753 560.028 365.917C561.281 367.071 562.564 368.233 563.846 369.369C616.289 415.567 695.784 442.848 787.685 446.194C865.487 449.023 951.071 434.298 1049.33 401.172C1057.17 398.526 1065.32 395.68 1073.56 392.712C1119.29 376.262 1163.46 357.37 1210.22 337.37C1248.73 320.9 1288.55 303.868 1329.3 288.342C1437.98 247.119 1533.21 223.741 1629.02 214.764C1659.14 211.887 1684.08 210.967 1707.52 211.871C1737.47 213.027 1763.87 217.166 1788.23 224.525C1835.9 238.99 1875.47 263.755 1913.74 287.704C1924.25 294.281 1934.18 300.496 1944.24 306.474C2043.33 365.391 2143.66 428.966 2250.96 500.834L2250.7 500.981Z" fill="#FFE492"/>
<path d="M2246.81 498.907C2140.53 426.261 2041.97 361.948 1945.51 302.292C1935.53 296.119 1925.67 289.654 1915.23 282.805C1878.02 258.412 1839.54 233.187 1792.31 219.048C1735.53 202.121 1674.22 207.645 1633.04 213.271C1521.27 228.355 1421.11 263.422 1337.87 295.74C1307.96 307.403 1278.12 319.757 1249.25 331.704C1191.36 355.67 1136.68 378.306 1079.28 396.842C1070.83 399.569 1062.44 402.182 1054.31 404.61C1007.22 418.653 963.904 428.4 921.899 434.406C874.282 441.214 828.705 442.927 786.426 439.493C742.992 435.964 702.307 427.194 665.506 413.425C626.905 398.984 593.552 379.372 566.365 355.133C565.097 353.995 563.818 352.83 562.569 351.672C542.285 332.849 525.599 312.422 509.459 292.667C504.171 286.193 498.701 279.501 493.205 272.987C469.297 244.585 446.591 221.962 421.753 201.785C418.518 199.156 415.18 196.523 411.827 193.954C350.722 147.143 270.172 109.147 178.887 84.0763C69.9335 54.2678 -42.0391 44.2803 -136.402 55.9563C-237.976 68.6911 -334.586 119.384 -320.435 182.177L-320.798 182.206C-324.308 166.627 -321.271 151.292 -311.773 136.629C-303.068 123.194 -289.133 110.55 -270.352 99.0499C-252.838 88.3249 -231.887 79.0352 -208.078 71.4339C-185.409 64.1959 -160.647 58.7696 -136.476 55.7383C-86.7805 49.59 -32.6152 49.3654 24.5179 55.0691C75.9535 60.2027 127.942 69.8952 179.041 83.876C270.381 108.96 350.975 146.978 412.109 193.818C415.462 196.389 418.803 199.024 422.042 201.653C446.895 221.839 469.609 244.475 493.527 272.888C499.023 279.402 504.494 286.096 509.781 292.57C525.917 312.319 542.6 332.738 562.869 351.553C564.119 352.711 565.394 353.874 566.661 355.012C619.511 402.129 697.573 432.055 786.47 439.275C866.199 445.751 953.754 434.346 1054.14 404.412C1062.27 401.986 1070.67 399.376 1079.1 396.648C1136.49 378.117 1191.16 355.485 1249.05 331.521C1277.91 319.574 1307.75 307.218 1337.67 295.553C1393.64 273.824 1440.2 257.769 1484.19 245.03C1535.98 230.035 1584.64 219.576 1632.95 213.056C1662.41 209.031 1688.08 207.209 1711.43 207.486C1741.51 207.843 1768.02 211.559 1792.47 218.85C1839.77 233.006 1878.26 258.247 1915.49 282.656C1925.94 289.502 1935.8 295.967 1945.77 302.135C2042.24 361.794 2140.8 426.111 2247.09 498.76L2246.81 498.907Z" fill="#FFE492"/>
<path d="M2242.93 496.832C2137.67 423.399 2040.88 358.345 1947.04 297.949C1937.2 291.615 1927.46 284.925 1917.15 277.841C1880.92 252.957 1843.47 227.226 1796.56 213.373C1739.16 196.486 1678.01 204.25 1637 211.561C1535.74 229.46 1445.41 263.541 1346.25 302.952C1328.36 310.087 1310.27 317.45 1292.78 324.574C1225.49 351.967 1155.92 380.292 1084.8 400.782C1076.16 403.274 1067.51 405.654 1059.1 407.855C1011.69 420.253 965.846 428.764 922.841 433.151C874.124 438.122 827.811 437.926 785.176 432.572C742.351 427.194 702.161 416.656 665.718 401.251C628.84 385.661 596.354 365.314 569.167 340.776C567.911 339.635 566.643 338.469 565.401 337.311C545.729 318.927 528.937 299.166 512.698 280.056C506.846 273.17 500.797 266.051 494.718 259.123C469.876 230.75 446.698 208.321 421.775 188.535C418.503 185.937 415.117 183.326 411.717 180.777C349.85 134.406 268.707 96.9698 177.055 72.5106C67.3869 43.3405 -44.8897 34.1103 -139.099 46.5215C-237.449 59.6195 -335.842 108.533 -324.48 173.39L-324.843 173.412C-327.573 157.833 -324.011 142.516 -314.261 127.886C-305.296 114.435 -291.277 101.78 -272.598 90.2667C-238.134 69.028 -189.505 53.0044 -139.18 46.3035C-89.5432 39.7655 -35.3193 39.1491 21.986 44.472C73.5461 49.2621 125.766 58.6267 177.201 72.3081C268.904 96.7805 350.096 134.241 412.003 180.634C415.407 183.186 418.792 185.796 422.068 188.396C447.002 208.193 470.191 230.631 495.041 259.015C501.119 265.945 507.172 273.064 513.024 279.95C529.259 299.056 546.047 318.813 565.709 337.188C566.947 338.345 568.215 339.51 569.472 340.65C623.864 389.745 698.478 421.455 785.246 432.354C865.591 442.445 957.675 434.135 1058.95 407.653C1067.35 405.451 1075.99 403.074 1084.63 400.584C1155.73 380.101 1225.29 351.78 1292.56 324.391C1310.06 317.268 1328.15 309.904 1346.04 302.769C1389.44 285.518 1439.95 265.73 1490.08 249.208C1542.52 231.928 1590.54 219.545 1636.89 211.352C1666.07 206.15 1691.74 203.451 1715.35 203.103C1745.12 202.663 1772.49 206.053 1796.71 213.177C1817.72 219.382 1838.87 228.643 1861.37 241.491C1881.23 252.834 1899.63 265.474 1917.42 277.696C1927.72 284.778 1937.46 291.468 1947.3 297.799C2041.15 358.197 2137.94 423.254 2243.2 496.689L2242.93 496.832Z" fill="#FFE492"/>
<path d="M2239.04 494.758C2134.82 420.532 2039.8 354.736 1948.57 293.609C1938.9 287.137 1929.33 280.245 1919.2 272.95C1883.92 247.548 1847.44 221.282 1800.8 207.702C1757.22 195.05 1704.93 195.755 1640.96 209.855C1551.51 229.458 1471.56 262.247 1386.9 296.964C1376.36 301.288 1365.47 305.756 1354.62 310.17C1350.37 311.902 1346.12 313.639 1341.88 315.374C1261.22 348.326 1177.81 382.401 1090.32 404.727C1081.47 406.985 1072.59 409.132 1063.9 411.104C1015.45 422.095 968.307 429.091 923.797 431.896C873.955 435.035 826.898 432.935 783.941 425.653C741.783 418.505 702.087 406.199 665.956 389.077C630.935 372.481 599.322 351.401 571.992 326.418C570.746 325.276 569.49 324.107 568.255 322.947C549.33 305.14 532.593 286.175 516.401 267.836C509.847 260.409 503.064 252.728 496.253 245.252C470.451 216.899 446.803 194.663 421.822 175.278C418.502 172.702 415.077 170.118 411.632 167.593C348.981 121.671 267.237 84.7915 175.226 60.9443C64.8473 32.4148 -47.7408 23.9396 -141.793 37.086C-238.336 50.6926 -336.59 100.007 -328.519 164.604L-328.885 164.621C-330.831 149.04 -326.749 133.741 -316.746 119.148C-307.516 105.682 -293.417 93.0113 -274.837 81.4895C-240.52 60.2068 -192.059 43.9455 -141.877 36.8725C-92.2953 29.9427 -38.0165 28.9345 19.4574 33.8787C71.1421 38.321 123.6 47.3597 175.373 60.7417C267.435 84.6044 349.23 121.503 411.907 167.45C415.351 169.975 418.785 172.564 422.104 175.139C447.096 194.535 470.759 216.778 496.568 245.142C503.383 252.618 510.162 260.301 516.72 267.728C532.904 286.063 549.642 305.023 568.559 322.823C569.794 323.983 571.047 325.15 572.293 326.293C627.865 377.091 701.083 411.373 784.036 425.435C865.924 439.317 960.038 434.423 1063.77 410.893C1072.45 408.92 1081.33 406.776 1090.17 404.52C1177.64 382.203 1261.03 348.134 1341.67 315.187C1345.92 313.45 1350.16 311.715 1354.41 309.983C1365.26 305.569 1376.15 301.1 1386.69 296.779C1471.37 262.055 1551.35 229.257 1640.83 209.645C1669.73 203.275 1695.39 199.702 1719.27 198.718C1749.16 197.487 1776.64 200.444 1800.96 207.501C1821.85 213.584 1842.73 222.887 1864.81 235.943C1884.28 247.462 1902.18 260.347 1919.48 272.807C1929.62 280.1 1939.18 286.99 1948.84 293.46C2040.08 354.589 2135.1 420.387 2239.32 494.614L2239.04 494.758Z" fill="#FFE492"/>
<path d="M2235.16 492.684C2140.03 423.518 2044.12 355.078 1950.09 289.269C1940.52 282.607 1931.03 275.451 1920.99 267.876C1888.33 243.234 1851.3 215.306 1805.05 202.029C1760.95 189.4 1708.58 191.401 1644.92 208.145C1569.23 227.988 1502.24 257.164 1431.33 288.054C1409.12 297.726 1386.15 307.731 1362.99 317.382C1322.56 334.264 1278.82 352.128 1232.97 368.398C1183.87 385.824 1139.01 398.995 1095.83 408.668C1086.76 410.7 1077.63 412.613 1068.68 414.349C1019.2 423.954 970.785 429.42 924.768 430.595C873.827 431.894 826.026 427.905 782.688 418.73C702.659 401.577 632.713 365.689 574.795 312.059C573.561 310.915 572.315 309.744 571.087 308.583C553.123 291.563 536.678 273.606 520.777 256.24C513.291 248.066 505.553 239.613 497.767 231.386C470.983 203.04 446.859 181 421.848 162.026C418.481 159.473 415.011 156.913 411.526 154.414C348.113 108.934 265.768 72.6163 173.398 49.3789C62.3047 21.4878 -50.5875 13.7721 -144.485 27.6516C-241.615 42.0902 -337.407 90.7511 -332.56 155.819L-332.926 155.827C-334.088 140.242 -329.478 124.96 -319.23 110.405C-309.733 96.9215 -295.553 84.2373 -277.079 72.7066C-259.675 61.8429 -239.047 52.3441 -215.769 44.4721C-193.169 36.8312 -169.218 31.0989 -144.577 27.4358C-95.0504 20.1164 -40.713 18.7163 16.9295 23.2797C68.7387 27.3808 121.427 36.0916 173.537 49.1742C265.962 72.4248 348.355 108.765 411.805 154.267C415.289 156.767 418.766 159.33 422.134 161.883C447.155 180.868 471.29 202.916 498.085 231.272C505.871 239.501 513.61 247.954 521.095 256.13C536.997 273.494 553.438 291.448 571.395 308.462C572.619 309.625 573.868 310.794 575.099 311.938C632.973 365.526 702.857 401.386 782.809 418.521C865.165 435.956 963.98 434.441 1068.57 414.138C1077.51 412.401 1086.64 410.491 1095.7 408.461C1192.25 386.837 1280.58 351.521 1362.78 317.199C1385.94 307.549 1408.9 297.546 1431.11 287.873C1502.04 256.977 1569.04 227.794 1644.77 207.942C1708.52 191.172 1761 189.171 1805.2 201.829C1825.92 207.775 1846.49 217.095 1868.09 230.319C1887.13 241.979 1904.49 255.075 1921.28 267.737C1931.32 275.312 1940.8 282.467 1950.37 289.123C2044.4 354.935 2140.31 423.375 2235.44 492.544L2235.16 492.684Z" fill="#FFE492"/>
<path d="M2231.27 490.611C2137.6 421.061 2043.51 351.86 1951.62 284.928C1942.35 278.194 1933.15 270.912 1923.4 263.203C1891.54 237.986 1855.43 209.404 1809.29 196.352C1764.67 183.745 1712.2 187.043 1648.87 206.43C1582.53 226.713 1521.57 255.353 1462.63 283.052C1433.07 296.94 1402.5 311.302 1371.36 324.592C1322.2 345.588 1280.84 361.605 1241.2 375C1192.31 391.517 1146.56 403.818 1101.35 412.606C1092.07 414.411 1082.69 416.089 1073.48 417.592C1025.46 425.422 978.314 429.385 933.209 429.387C930.703 429.387 928.212 429.374 925.72 429.349C873.574 428.839 825.033 422.935 781.446 411.805C760.407 406.403 739.804 399.545 720.213 391.422C701.797 383.788 683.701 374.796 666.425 364.696C635.343 346.526 606.287 324.609 577.605 297.698C576.374 296.54 575.146 295.38 573.926 294.215C557.284 278.337 541.54 261.739 526.316 245.686C517.526 236.421 508.439 226.838 499.287 217.511C471.107 188.775 447.235 167.572 421.877 148.765C418.466 146.236 414.952 143.7 411.423 141.226C347.241 96.1972 264.298 60.4385 171.569 37.8109C59.7651 10.5604 -53.4349 3.60191 -147.179 18.2145C-242.487 33.1132 -338.155 82.1438 -336.598 147.029L-336.964 147.031C-337.69 116.808 -317.754 88.0699 -279.315 63.9233C-261.94 53.009 -241.421 43.4419 -218.323 35.4818C-195.848 27.7375 -171.944 21.8555 -147.271 17.9987C-97.8025 10.2874 -43.4065 8.4977 14.4045 12.6803C66.3383 16.438 119.262 24.8229 171.705 37.6039C264.492 60.247 347.482 96.0277 411.705 141.083C415.234 143.559 418.755 146.097 422.166 148.627C447.536 167.444 471.418 188.654 499.605 217.401C508.758 226.731 517.849 236.313 526.635 245.579C541.859 261.629 557.599 278.225 574.238 294.099C575.458 295.263 576.682 296.423 577.913 297.579C638.86 354.766 705.483 392.063 781.589 411.602C886.999 438.52 998.447 429.603 1073.38 417.381C1082.59 415.877 1091.96 414.202 1101.24 412.397C1205.22 392.184 1300.1 354.759 1371.15 324.413C1402.29 311.128 1432.85 296.767 1462.4 282.88C1521.37 255.176 1582.33 226.528 1648.71 206.236C1677.04 197.561 1702.69 192.233 1727.1 189.953C1757.22 187.139 1784.92 189.226 1809.44 196.156C1830.1 202.001 1850.48 211.396 1871.72 224.877C1890.44 236.756 1907.35 250.133 1923.7 263.073C1933.44 270.78 1942.63 278.06 1951.9 284.789C2043.79 351.721 2137.88 420.923 2231.56 490.472L2231.27 490.611Z" fill="#FFE492"/>
<path d="M2227.39 488.537L1953.15 280.589C1944.19 273.798 1935.3 266.408 1925.88 258.586C1894.81 232.773 1859.58 203.517 1813.53 190.681C1769 178.27 1714.94 182.994 1652.83 204.724C1593.13 225.612 1538.68 253.391 1486.02 280.256C1451.7 297.768 1416.2 315.874 1379.74 331.81C1270.13 379.707 1174.33 407.996 1078.28 420.841C1038.43 426.168 999.114 428.85 960.99 428.85C949.434 428.85 937.995 428.603 926.676 428.11C873.299 425.785 824.018 417.971 780.207 404.886C739.602 392.756 702.457 375.634 666.659 352.538C638.072 334.095 610.669 312.108 580.423 283.343C564.458 268.162 549 252.389 534.051 237.136C500.217 202.619 465.233 166.926 421.921 135.513C355.485 87.3323 268.281 49.5483 169.737 26.2448C57.2257 -0.362912 -56.282 -6.56631 -149.872 8.77929C-240.483 23.6362 -338.829 70.4853 -340.639 138.243L-341.006 138.238C-340.196 107.952 -319.637 79.2181 -281.553 55.1419C-247.119 33.3728 -200.388 16.8318 -149.967 8.56576C-100.554 0.464796 -46.0997 -1.71674 11.8762 2.08499C63.9346 5.49708 117.092 13.5584 169.872 26.0401C218.633 37.5707 264.943 52.7491 307.519 71.1545C350.45 89.7141 389.036 111.318 422.199 135.368C465.53 166.792 500.525 202.494 534.366 237.02C549.315 252.271 564.773 268.041 580.734 283.219C624.863 325.19 687.438 376.924 780.372 404.683C886.951 436.517 1001.15 430.921 1078.19 420.621C1174.21 407.785 1269.95 379.506 1379.52 331.627C1415.97 315.698 1451.46 297.592 1485.78 280.085C1538.45 253.215 1592.92 225.429 1652.65 204.53C1714.86 182.763 1769.04 178.034 1813.69 190.479C1834.31 196.226 1854.49 205.703 1875.4 219.455C1893.8 231.56 1910.26 245.233 1926.18 258.454C1935.59 266.276 1944.49 273.661 1953.44 280.45L2227.68 488.398L2227.39 488.537Z" fill="#FFE492"/>
<path d="M2225.18 472.551C2155.35 414.651 2095.43 367.667 2036.62 324.695C2008.08 303.819 1978.92 283.272 1949.97 263.623C1941.21 257.679 1932.54 251.357 1923.35 244.663C1900.27 227.838 1876.4 210.44 1848.93 197.529C1834.18 190.584 1819.98 185.611 1805.52 182.327C1761.14 172.146 1709.07 178.877 1650.75 202.337C1620.57 214.46 1593.09 228.256 1570.19 240.152C1545.95 252.746 1522.03 266.634 1498.9 280.065C1465.66 299.37 1431.28 319.332 1394.33 336.476C1371.84 346.939 1349.05 356.288 1326.58 364.266C1281.62 380.226 1233.36 393.377 1183.15 403.353C1152.13 409.449 1120.95 414.056 1090.5 417.046C1064.26 419.613 1037.96 421.094 1012.35 421.448C974.012 421.981 936.661 419.949 901.333 415.404C863.769 410.569 828.221 402.854 795.677 392.468C766.658 383.207 739.247 371.546 711.881 356.817C660.885 329.392 620.21 297.682 590.473 273.119C575.865 260.997 561.601 248.634 547.806 236.678C508.084 202.247 470.564 169.726 423.614 140.759C385.321 117.288 341.631 97.0334 293.746 80.5541C256.948 67.8898 216.926 57.5324 174.794 49.7683C164.758 47.9213 154.531 46.1999 144.408 44.6567C100.821 38.0241 51.752 33.705 -1.43134 31.8185C-55.0506 29.8725 -101.441 31.5565 -143.244 36.9718C-166.877 40.0097 -189.773 44.7756 -211.307 51.1353C-287.328 73.5891 -336.143 111.283 -341.889 151.968L-342.347 151.944C-340.815 141.098 -336.319 130.415 -328.988 120.187C-322.022 110.473 -312.456 101.104 -300.555 92.3402C-278.069 75.786 -247.276 61.4508 -211.508 50.8866C-189.942 44.5159 -167.009 39.7433 -143.339 36.7011C-101.492 31.2813 -55.0653 29.5951 -1.40204 31.5433C51.8106 33.4299 100.905 37.7533 144.521 44.3904C154.656 45.9357 164.886 47.6572 174.929 49.5063C217.095 57.2749 257.15 67.641 293.977 80.3164C341.895 96.8067 385.621 117.079 423.932 140.565C470.913 169.55 508.439 202.08 548.176 236.52C561.967 248.475 576.231 260.836 590.836 272.956C620.558 297.508 661.214 329.203 712.181 356.61C739.518 371.324 766.9 382.973 795.886 392.223C859.577 412.548 932.4 422.289 1012.33 421.173C1037.93 420.819 1064.2 419.337 1090.43 416.773C1120.86 413.783 1152.01 409.18 1183 403.089C1233.19 393.119 1281.41 379.977 1326.34 364.026C1348.8 356.055 1371.58 346.71 1394.04 336.256C1430.98 319.121 1465.35 299.163 1498.58 279.864C1521.71 266.432 1545.63 252.539 1569.89 239.941C1592.8 228.038 1620.29 214.238 1650.5 202.106C1676.46 191.661 1701.6 184.445 1725.22 180.656C1754.24 176.002 1781.31 176.478 1805.68 182.069C1820.19 185.365 1834.42 190.351 1849.21 197.311C1876.72 210.242 1900.6 227.65 1923.7 244.486C1932.89 251.178 1941.56 257.501 1950.31 263.44C1979.27 283.091 2008.43 303.641 2036.98 324.521C2095.79 367.498 2155.71 414.486 2225.55 472.39L2225.18 472.551Z" fill="#FFE492"/>
<path d="M2222.97 456.56C2158.22 397.681 2097.46 348.41 2037.19 305.935C2007.81 285.187 1977.39 265.243 1946.79 246.657C1938.67 241.726 1930.66 236.601 1922.17 231.177C1896.76 214.933 1870.48 198.137 1841.05 186.516C1826.19 180.623 1811.95 176.52 1797.51 173.971C1742.22 164.206 1686.06 182.706 1648.67 199.944C1622.19 212.122 1598 225.892 1573.49 240.106C1552.05 252.548 1531.87 265.932 1510.51 280.1C1478.8 301.132 1446.02 322.879 1408.92 341.139C1386.9 352.034 1363.92 361.453 1340.62 369.136C1297.22 383.449 1249.7 394.564 1195.33 403.118C1164.9 407.904 1133.75 411.314 1102.72 413.249C1076.54 414.862 1050.41 415.439 1025.04 414.957C987.313 414.248 950.431 411.06 915.417 405.484C878.645 399.627 843.559 391.068 811.136 380.046C782.728 370.391 755.3 358.411 727.281 343.424C676.395 316.244 632.804 286.112 600.517 262.896C588.565 254.302 576.803 245.655 565.426 237.29C520.121 203.98 477.328 172.513 425.307 146.005C386.428 126.193 342.778 109.44 295.578 96.2147C259.865 86.2073 222.012 78.7095 179.861 73.292C170.133 72.0438 160.237 70.919 150.45 69.9482C107.464 65.7062 61.5864 64.1014 6.08014 62.4416C-33.931 61.1846 -86.3082 60.3569 -136.626 65.1602C-160.457 67.3924 -183.493 71.269 -205.1 76.6777C-281.172 95.726 -332.776 129.002 -343.145 165.694L-343.688 165.639C-340.939 155.909 -335.37 146.366 -327.144 137.272C-319.303 128.608 -309 120.3 -296.524 112.573C-272.814 97.8943 -241.274 85.3752 -205.312 76.3717C-183.665 70.952 -160.585 67.0688 -136.714 64.8322C-86.3485 60.0223 -33.931 60.8522 6.10574 62.1092C61.6303 63.769 107.522 65.3738 150.538 69.618C160.332 70.591 170.236 71.7158 179.975 72.964C222.166 78.3881 260.056 85.8925 295.809 95.9109C343.057 109.15 386.743 125.915 425.662 145.747C477.721 172.276 520.531 203.751 565.851 237.075C577.224 245.438 588.986 254.084 600.938 262.676C633.218 285.883 676.791 316.004 727.647 343.171C755.633 358.142 783.032 370.109 811.407 379.753C875.161 401.425 947.049 413.156 1025.06 414.622C1050.4 415.102 1076.51 414.528 1102.66 412.914C1133.66 410.981 1164.79 407.576 1195.19 402.792C1249.51 394.247 1297 383.141 1340.36 368.841C1363.63 361.167 1386.58 351.761 1408.57 340.877C1445.64 322.632 1478.41 300.894 1510.11 279.873C1531.48 265.699 1551.66 252.312 1573.12 239.864C1597.63 225.641 1621.83 211.867 1648.34 199.676C1672.58 188.5 1696.48 180.46 1719.39 175.776C1747.17 170.096 1773.51 169.381 1797.67 173.647C1812.16 176.207 1826.45 180.324 1841.36 186.234C1870.84 197.877 1897.14 214.689 1922.58 230.946C1931.06 236.368 1939.08 241.491 1947.19 246.419C1977.8 265.012 2008.22 284.963 2037.62 305.717C2097.89 348.203 2158.68 397.483 2223.43 456.375L2222.97 456.56Z" fill="#FFE492"/>
<path d="M2220.76 440.57C2160.16 379.912 2100.31 329.736 2037.77 287.178C2007.53 266.558 1975.85 247.219 1943.62 229.694C1936.73 225.947 1929.63 221.972 1922.77 218.128C1894.45 202.248 1865.16 185.828 1833.18 175.506C1818.17 170.627 1803.88 167.391 1789.51 165.615C1734.33 158.793 1681.34 179.217 1646.59 197.55C1623.05 209.926 1601.52 223.953 1580.7 237.52L1576.8 240.06C1557.9 252.368 1540.17 265.867 1521.4 280.16C1491.5 302.92 1460.59 326.452 1423.51 345.802C1401.93 357.143 1378.77 366.633 1354.67 374.008C1312.65 386.866 1265.88 396.041 1207.5 402.883C1177.31 406.42 1146.17 408.631 1114.93 409.45C1088.81 410.108 1062.84 409.778 1037.73 408.463C961.701 404.503 890.663 390.762 826.587 367.624C798.887 357.621 771.44 345.326 742.681 330.031C694.011 304.203 650.725 277.655 610.563 252.676C605.177 249.328 599.85 246.002 594.563 242.702C539.709 208.473 487.899 176.142 427.011 151.258C387.26 135.012 343.654 121.764 297.41 111.88C263.46 104.624 226.665 99.6976 184.932 96.8183C175.527 96.1733 165.96 95.6428 156.496 95.2421C132.687 94.2515 107.434 94.0908 80.6981 93.9213C59.2233 93.7848 37.0193 93.6439 13.5879 93.0694C-31.6665 91.8653 -82.9554 90.5026 -130.016 93.3556C-154.298 94.8283 -177.473 97.8133 -198.9 102.229C-274.943 117.903 -329.339 146.765 -344.409 179.435L-345.028 179.331C-341.057 170.718 -334.417 162.315 -325.298 154.357C-316.577 146.747 -305.541 139.496 -292.497 132.806C-267.549 120.012 -235.254 109.313 -199.112 101.864C-177.637 97.4369 -154.415 94.4452 -130.086 92.9703C-82.9774 90.1152 -31.6628 91.48 13.6099 92.6842C37.0266 93.2565 59.2306 93.3996 80.6981 93.5361C107.445 93.7056 132.705 93.8663 156.536 94.8591C166.008 95.2619 175.585 95.7925 184.998 96.4375C226.783 99.319 263.621 104.252 297.619 111.519C343.918 121.414 387.571 134.677 427.366 150.941C488.31 175.847 540.145 208.193 595.021 242.438C600.308 245.737 605.639 249.061 611.021 252.412C651.175 277.386 694.448 303.928 743.102 329.747C771.832 345.025 799.25 357.308 826.917 367.298C890.909 390.408 961.855 404.129 1037.78 408.085C1062.87 409.397 1088.81 409.727 1114.9 409.069C1146.1 408.25 1177.22 406.042 1207.37 402.509C1265.69 395.674 1312.41 386.509 1354.37 373.669C1378.43 366.31 1401.54 356.837 1423.08 345.516C1460.12 326.19 1491.01 302.671 1520.89 279.924C1539.67 265.624 1557.41 252.119 1576.33 239.803L1580.22 237.262C1601.05 223.689 1622.59 209.653 1646.17 197.264C1681.02 178.871 1734.2 158.388 1789.63 165.241C1804.07 167.026 1818.41 170.273 1833.48 175.171C1865.53 185.515 1894.85 201.953 1923.21 217.851C1930.06 221.694 1937.16 225.67 1944.04 229.414C1976.29 246.948 2007.98 266.298 2038.24 286.929C2100.81 329.505 2160.68 379.698 2221.3 440.376L2220.76 440.57Z" fill="#FFE492"/>
<path d="M2218.55 424.577C2162.91 363.003 2102.28 310.463 2038.34 268.422C2007.26 247.932 1974.32 229.196 1940.45 212.735C1935.56 210.357 1930.55 207.889 1925.7 205.503C1893.69 189.739 1860.59 173.436 1825.33 164.499C1810.19 160.622 1795.86 158.256 1781.52 157.261C1726.5 153.448 1676.65 175.763 1644.53 195.155C1624.57 207.134 1606.57 220.457 1589.15 233.341C1586.14 235.571 1583.13 237.797 1580.11 240.014C1563.55 252.192 1548.06 265.796 1531.66 280.197C1503.79 304.681 1474.96 329.996 1438.1 350.469C1416.45 362.49 1393.76 371.784 1368.71 378.886C1316.32 393.738 1263.97 399.235 1219.67 402.656C1189.7 404.967 1158.57 405.98 1127.14 405.659C1101.1 405.361 1075.29 404.122 1050.42 401.978C976.673 395.636 906.565 379.901 842.045 355.208C815.199 344.937 787.737 332.323 758.084 316.647C728.131 300.85 700.219 285.65 673.222 270.949C654.876 260.957 637.545 251.52 620.621 242.466C556.647 208.239 498.049 178.147 428.729 156.517C388.124 143.848 344.563 134.1 299.253 127.547C266.779 122.849 232.066 120.562 190.014 120.344C180.942 120.304 171.701 120.368 162.552 120.535C148.655 120.806 134.277 121.372 119.06 121.973C89.8582 123.124 56.7538 124.43 21.0955 123.699C7.5166 123.419 -6.33707 123.025 -19.7364 122.642C-54.2002 121.658 -89.8365 120.641 -123.41 121.55C-148.065 122.22 -171.383 124.315 -192.708 127.78C-268.622 140.119 -325.807 164.569 -345.681 193.184L-346.358 193.015C-341.155 185.522 -333.446 178.261 -323.447 171.435C-313.844 164.879 -302.075 158.687 -288.474 153.032C-262.265 142.135 -229.22 133.257 -192.905 127.355C-171.53 123.882 -148.16 121.779 -123.45 121.11C-89.8401 120.199 -54.1892 121.218 -19.7071 122.202C-6.3114 122.585 7.54224 122.979 21.1175 123.259C56.7428 123.989 89.8215 122.686 119.009 121.535C134.233 120.934 148.614 120.368 162.527 120.097C171.687 119.93 180.935 119.866 190.018 119.906C232.129 120.122 266.893 122.415 299.422 127.12C344.786 133.682 388.406 143.441 429.062 156.127C460.375 165.897 492.106 178.275 526.068 193.966C556.472 208.013 586.047 223.383 621.105 242.138C638.029 251.194 655.36 260.632 673.709 270.623C700.702 285.322 728.615 300.522 758.561 316.317C788.184 331.977 815.617 344.578 842.43 354.838C906.862 379.498 976.87 395.211 1050.51 401.544C1075.36 403.686 1101.14 404.923 1127.14 405.221C1158.54 405.542 1189.64 404.532 1219.56 402.22C1263.81 398.806 1316.1 393.316 1368.39 378.49C1393.37 371.408 1416.01 362.138 1437.6 350.147C1474.39 329.71 1503.2 304.414 1531.05 279.951C1547.46 265.541 1562.95 251.93 1579.54 239.739C1582.55 237.522 1585.56 235.296 1588.57 233.068C1606 220.175 1624.02 206.844 1643.99 194.849C1664.9 182.233 1686.34 172.527 1707.73 166.002C1733.07 158.273 1757.92 155.187 1781.59 156.829C1796 157.829 1810.4 160.206 1825.6 164.098C1860.95 173.06 1894.1 189.383 1926.15 205.166C1931 207.553 1936.01 210.02 1940.89 212.396C1974.79 228.87 2007.75 247.624 2038.86 268.129C2072.81 290.453 2106.06 315.888 2137.68 343.726C2165.63 368.33 2193.05 395.464 2219.17 424.37L2218.55 424.577Z" fill="#FFE492"/>
<path d="M2216.33 408.579C2164.84 345.24 2105.15 291.773 2038.92 249.664C2006.98 229.304 1972.79 211.173 1937.29 195.773C1935.6 195.04 1933.91 194.307 1932.22 193.571C1895.3 177.537 1857.13 160.956 1817.49 153.491C1802.13 150.599 1787.75 149.1 1773.55 148.906C1718.75 148.162 1672.02 172.341 1642.47 192.755C1625.08 204.697 1609.64 217.786 1594.71 230.444C1591.02 233.574 1587.2 236.81 1583.44 239.963C1569.09 251.969 1555.75 265.619 1541.62 280.073C1515.94 306.364 1489.38 333.549 1452.71 355.131C1431.49 367.617 1408.61 376.981 1382.76 383.761C1331.84 397.117 1280.13 400.624 1231.84 402.424C1202.06 403.534 1170.94 403.344 1139.34 401.863C1113.4 400.608 1087.75 398.462 1063.11 395.486C991.871 386.9 922.694 369.171 857.507 342.788C831.401 332.223 804.705 319.662 773.499 303.258C714.189 272.166 670.148 250.267 630.701 232.253C552.243 196.426 492.362 175.349 430.48 161.775C389.051 152.688 345.534 146.443 301.129 143.211C270.322 140.97 237.628 141.17 195.125 143.867C186.416 144.426 177.505 145.084 168.638 145.826C160.262 146.537 151.754 147.352 142.745 148.213C109.479 151.393 71.7725 154.999 28.6176 154.326C5.8714 153.971 -17.3622 153 -39.83 152.063C-65.3645 150.997 -91.7675 149.894 -116.8 149.745C-141.899 149.595 -165.359 150.801 -186.512 153.333C-262.174 162.383 -322.154 182.426 -346.956 206.947L-347.659 206.689C-341.218 200.318 -332.439 194.201 -321.568 188.506C-311.074 183.007 -298.58 177.876 -284.429 173.251C-256.942 164.265 -223.137 157.207 -186.673 152.846C-165.462 150.31 -141.95 149.1 -116.793 149.249C-91.7382 149.399 -65.3206 150.502 -39.775 151.57C-17.3145 152.507 5.90802 153.478 28.636 153.833C71.7139 154.504 109.38 150.903 142.609 147.726C151.623 146.863 160.138 146.051 168.517 145.338C177.395 144.596 186.313 143.937 195.03 143.376C237.599 140.677 270.348 140.475 301.221 142.722C345.688 145.958 389.267 152.212 430.755 161.313C492.721 174.904 552.664 196.004 631.192 231.862C670.653 249.882 714.71 271.787 774.034 302.888C805.218 319.279 831.885 331.827 857.962 342.38C923.061 368.726 992.135 386.432 1063.26 395.004C1087.87 397.975 1113.49 400.117 1139.4 401.372C1170.96 402.851 1202.04 403.041 1231.78 401.933C1280 400.135 1331.62 396.637 1382.43 383.312C1408.18 376.558 1430.98 367.225 1452.12 354.783C1488.71 333.247 1515.25 306.091 1540.91 279.829C1555.04 265.366 1568.39 251.705 1582.76 239.681C1586.53 236.531 1590.35 233.295 1594.03 230.164C1608.97 217.496 1624.42 204.398 1641.84 192.435C1661.12 179.113 1681.34 168.575 1701.93 161.112C1726.05 152.371 1750.15 148.102 1773.56 148.417C1787.85 148.611 1802.29 150.119 1817.73 153.025C1857.5 160.516 1895.73 177.118 1932.7 193.177C1934.39 193.913 1936.08 194.648 1937.77 195.379C1973.31 210.797 2007.54 228.949 2039.51 249.331C2105.8 291.479 2165.54 344.987 2217.07 408.37L2216.33 408.579Z" fill="#FFE492"/>
<path d="M1250.07 402.196C1248.01 402.196 1245.99 402.194 1243.99 402.187C1214.37 402.112 1183.26 400.725 1151.54 398.062C1125.69 395.85 1100.2 392.796 1075.79 388.99C1040.91 383.562 1005.9 375.76 971.733 365.803C938.739 356.188 905.51 344.265 872.966 330.364C841.078 316.744 811.293 301.568 788.906 289.868C736.525 262.567 686.687 239.747 640.777 222.042C566.419 193.367 500.155 175.886 432.235 167.03C391.261 161.688 347.3 158.87 304.973 158.87C304.317 158.87 303.665 158.87 303.009 158.872C266.647 158.947 232.125 163.006 200.24 167.382C191.941 168.529 183.357 169.782 174.724 171.109C169.994 171.845 165.256 172.602 160.244 173.403C124.89 179.063 84.8164 185.475 36.1325 184.949C6.48325 184.628 -23.7999 182.783 -53.0865 180.998C-71.9965 179.844 -91.5477 178.653 -110.198 177.934C-135.835 176.945 -159.427 177.262 -180.327 178.88C-255.586 184.7 -318.362 200.339 -348.256 220.715L-348.945 220.351C-333.611 209.902 -310.546 200.854 -280.391 193.457C-251.592 186.396 -217.029 181.165 -180.444 178.336C-159.49 176.716 -135.835 176.395 -110.139 177.388C-91.4707 178.107 -71.9085 179.301 -52.9912 180.454C-23.723 182.239 6.54184 184.084 36.1508 184.403C84.7101 184.929 124.714 178.526 160.009 172.877C165.026 172.074 169.763 171.316 174.497 170.581C183.137 169.254 191.729 167.999 200.035 166.852C231.974 162.469 266.556 158.403 303.005 158.326C346.006 158.236 390.755 161.062 432.43 166.498C467.483 171.07 501.467 177.799 536.316 187.071C569.878 196.002 604.21 207.291 641.268 221.584C687.215 239.303 737.089 262.14 789.503 289.458C811.872 301.152 841.635 316.317 873.49 329.921C939.527 358.129 1007.67 377.825 1076.02 388.464C1100.4 392.266 1125.85 395.315 1151.67 397.525C1183.35 400.184 1214.41 401.571 1243.99 401.643C1290.28 401.758 1344.03 400.82 1396.46 388.129C1422.99 381.706 1445.95 372.313 1466.64 359.415C1502.98 336.763 1527.06 307.69 1550.36 279.572C1562.35 265.109 1573.67 251.448 1585.97 239.622C1589.92 235.833 1593.9 231.93 1597.74 228.155C1610.74 215.4 1624.18 202.214 1639.67 190.026C1657.36 176.003 1676.35 164.629 1696.11 156.219C1719.01 146.47 1742.36 141.015 1765.5 140.006C1779.79 139.384 1794.29 140.02 1809.83 141.952C1851.38 147.117 1892.57 162.121 1934.62 178.361C1971.28 192.52 2007.77 210.56 2040.14 230.533C2076.1 252.654 2109.89 278.606 2140.56 307.666C2167.88 333.556 2192.91 362.054 2214.95 392.371L2214.11 392.591C2166.78 327.484 2108.03 273.089 2039.49 230.918C2007.16 210.974 1970.73 192.96 1934.13 178.825C1892.15 162.614 1851.04 147.639 1809.64 142.492C1794.19 140.57 1779.77 139.938 1765.57 140.557C1723.04 142.413 1678.59 160.098 1640.4 190.36C1624.94 202.527 1611.51 215.702 1598.52 228.443C1594.68 232.221 1590.69 236.126 1586.75 239.915C1574.47 251.718 1563.15 265.369 1551.18 279.819C1539.75 293.614 1527.93 307.881 1514.37 321.596C1498.99 337.144 1483.6 349.639 1467.3 359.798C1446.52 372.753 1423.46 382.188 1396.8 388.642C1373.29 394.335 1348.02 398.097 1319.55 400.149C1295.43 401.877 1271.22 402.196 1250.07 402.196Z" fill="#FFE492"/>
<path d="M1308.82 403.298C1290.14 403.298 1272.19 402.629 1256.14 401.951C1226.62 400.705 1195.52 398.119 1163.73 394.262C1137.98 391.094 1112.66 387.136 1088.45 382.494C1022.18 369.807 956.74 348.69 888.41 317.939C858.61 304.531 830.518 290.103 804.306 276.477C752.555 249.653 700.929 227.904 650.853 211.83C577.206 188.189 508.301 175.622 434.002 172.28C391.667 170.376 347.025 171.153 304.896 174.525C269.633 177.348 236.39 184.159 205.356 190.89C197.591 192.583 189.333 194.432 180.814 196.385C178.685 196.876 176.538 197.375 174.362 197.88C138.619 206.183 98.1755 215.578 46.271 215.578C45.3953 215.578 44.5233 215.576 43.6403 215.57C8.52426 215.356 -27.3282 212.345 -62.0045 209.43C-75.7519 208.274 -89.9683 207.081 -103.609 206.115C-130.254 204.23 -153.33 203.674 -174.16 204.418C-249.921 207.125 -313.869 218.079 -349.601 234.477L-350.213 233.995C-332.549 225.89 -307.007 218.852 -276.357 213.643C-246.21 208.521 -210.892 205.122 -174.223 203.812C-153.334 203.066 -130.199 203.623 -103.496 205.512C-89.8401 206.478 -75.62 207.673 -61.869 208.827C-27.2256 211.737 8.59387 214.746 43.6439 214.96C96.6294 215.286 137.732 205.734 173.992 197.309C176.164 196.805 178.315 196.306 180.444 195.813C188.97 193.858 197.232 192.009 205.004 190.316C236.089 183.571 269.395 176.751 304.753 173.92C346.948 170.543 391.664 169.764 434.068 171.67C470.887 173.326 505.992 177.235 541.387 183.619C577.84 190.195 613.799 199.244 651.318 211.29C701.457 227.386 753.149 249.162 804.954 276.012C831.156 289.634 859.23 304.053 889.004 317.448C957.242 348.157 1022.58 369.244 1088.75 381.91C1112.92 386.544 1138.21 390.498 1163.92 393.661C1195.67 397.513 1226.72 400.098 1256.2 401.339C1305.8 403.431 1358.57 404.505 1410.48 392.932C1437.8 386.841 1460.91 377.389 1481.15 364.033C1517.19 340.243 1539.63 307.793 1559.42 279.162C1569.38 264.757 1578.79 251.15 1589.17 239.551C1592.92 235.366 1596.69 231.041 1600.33 226.858C1611.74 213.771 1623.53 200.239 1637.48 187.601C1653.63 172.879 1671.39 160.668 1690.28 151.308C1711.97 140.559 1734.56 133.919 1757.43 131.579C1771.73 130.115 1786.28 129.882 1801.92 130.86C1845.61 133.596 1890 147.116 1931.46 161.322C1969.75 174.437 2007.54 191.863 2040.77 211.715C2077.73 233.733 2111.78 259.944 2141.98 289.616C2168.98 316.152 2192.82 345.333 2212.83 376.354L2211.89 376.572C2169.36 310.633 2109.94 253.774 2040.06 212.142C2006.9 192.328 1969.18 174.935 1930.97 161.846C1889.6 147.673 1845.33 134.186 1801.82 131.46C1786.27 130.487 1771.81 130.721 1757.61 132.174C1715.38 136.495 1673.02 156.296 1638.33 187.932C1624.4 200.543 1612.62 214.062 1601.23 227.136C1597.59 231.32 1593.82 235.646 1590.07 239.835C1579.71 251.408 1570.31 265.001 1560.36 279.391C1540.53 308.066 1518.06 340.569 1481.89 364.438C1461.55 377.866 1438.3 387.372 1410.83 393.498C1387 398.812 1361.28 401.89 1332.21 402.9C1324.36 403.186 1316.53 403.298 1308.82 403.298Z" fill="#FFE492"/>
<path d="M1345.7 405.683C1345.43 405.683 1345.17 405.683 1344.9 405.683C1318.5 405.643 1292.58 403.702 1268.28 401.716C1238.81 399.308 1207.73 395.519 1175.92 390.461C1150.29 386.342 1125.13 381.475 1101.13 375.998C1037.5 361.497 974.818 339.103 903.865 305.517C878.312 293.425 853.166 280.404 828.844 267.815C825.803 266.238 822.758 264.664 819.713 263.091C767.695 236.274 714.277 215.592 660.947 201.622C587.92 182.495 514.269 174.614 435.786 177.531C392.752 179.131 348.15 183.505 306.801 190.18C274.177 195.447 245.106 203.898 210.489 214.399C203.472 216.536 195.979 218.843 186.914 221.661L186.409 221.82C168.92 227.292 149.098 233.493 126.865 238.209C101.33 243.624 76.5575 246.23 51.1548 246.2C11.5431 246.14 -28.8821 241.711 -67.9735 237.425C-77.5513 236.375 -87.4588 235.29 -97.0219 234.308C-124.447 231.497 -147.662 230.077 -167.994 229.969C-242.857 229.573 -309.55 236.238 -350.968 248.253L-351.444 247.659C-331.157 241.773 -303.79 236.996 -272.305 233.843C-240.762 230.684 -204.686 229.117 -167.983 229.311C-147.593 229.419 -124.319 230.841 -96.835 233.658C-87.2646 234.64 -77.3571 235.726 -67.7757 236.776C-28.7318 241.055 11.642 245.48 51.1585 245.539C51.3344 245.539 51.5139 245.539 51.6898 245.539C108.215 245.539 151.278 232.067 185.903 221.234L186.412 221.076C195.481 218.256 202.974 215.949 209.994 213.811C244.67 203.293 273.792 194.827 306.519 189.543C347.937 182.856 392.612 178.475 435.72 176.872C474.126 175.446 510.352 176.533 546.476 180.201C585.402 184.152 622.992 190.961 661.387 201.019C714.819 215.015 768.329 235.73 820.431 262.591C823.476 264.165 826.521 265.741 829.562 267.317C853.873 279.902 879.012 292.919 904.542 305.002C975.405 338.546 1037.99 360.91 1101.52 375.386C1125.48 380.856 1150.61 385.714 1176.2 389.829C1207.97 394.881 1239 398.663 1268.43 401.067C1321.15 405.377 1372.75 408.366 1424.53 397.765C1452.62 392.01 1475.9 382.498 1495.67 368.683C1531.39 343.726 1550.91 309.145 1568.13 278.632C1576.19 264.347 1583.8 250.853 1592.39 239.514C1595.7 235.151 1599.01 230.638 1602.22 226.273C1612.24 212.625 1622.61 198.514 1635.32 185.209C1649.95 169.78 1666.49 156.73 1684.46 146.423C1704.96 134.677 1726.79 126.858 1749.37 123.186C1763.37 120.91 1777.66 119.8 1793.01 119.8C1793.34 119.8 1793.68 119.8 1794.01 119.802C1841.74 119.952 1890.86 132.98 1928.32 144.312C1968.22 156.387 2007.33 173.196 2041.41 192.925C2079.37 214.841 2113.7 241.31 2143.42 271.599C2170.09 298.779 2192.74 328.645 2210.72 360.37L2209.68 360.584C2182.92 313.378 2131.86 246.056 2040.65 193.402C2006.65 173.718 1967.63 156.948 1927.82 144.902C1890.47 133.601 1841.51 120.61 1794.01 120.463C1778.37 120.408 1763.87 121.513 1749.66 123.824C1707.83 130.629 1667.56 152.545 1636.27 185.537C1623.59 198.811 1613.24 212.906 1603.22 226.539C1600.02 230.907 1596.7 235.422 1593.39 239.787C1584.83 251.098 1577.22 264.574 1569.17 278.843C1551.92 309.411 1532.37 344.058 1496.51 369.112C1476.6 383.02 1453.17 392.596 1424.88 398.388C1400.91 403.294 1375 405.683 1345.7 405.683Z" fill="#FFE492"/>
<path d="M1375.03 408.782C1369.34 408.782 1363.53 408.672 1357.58 408.452C1331.53 407.49 1306.22 404.604 1280.43 401.478C1250.53 397.854 1220.33 393.007 1188.11 386.658C1162.61 381.591 1137.61 375.819 1113.8 369.499C1053.39 353.49 993.41 329.925 919.32 293.092C900.919 283.945 882.526 274.352 864.737 265.073C855.053 260.023 845.043 254.8 835.124 249.699C782.487 222.702 727.285 203.092 671.049 191.412C596.746 175.978 520.381 173.152 437.581 182.771C393.837 187.854 349.275 195.825 308.718 205.822C276.137 213.852 247.756 225.13 217.707 237.07L215.63 237.895C210.936 239.767 206.191 241.664 201.388 243.584C198.621 244.691 195.836 245.805 193.026 246.928C175.505 253.965 156.58 261.307 134.878 266.958C109.681 273.518 84.7579 276.745 58.6774 276.824C15.2588 276.952 -29.0283 270.889 -71.8534 265.02C-77.9649 264.182 -84.2891 263.317 -90.4263 262.496C-119.2 258.643 -141.884 256.426 -161.823 255.515C-235.404 252.154 -304.845 254.522 -352.345 262.016L-352.649 261.324C-305.024 253.811 -235.441 251.434 -161.732 254.802C-141.737 255.715 -118.995 257.939 -90.1662 261.798C-84.0252 262.621 -77.7011 263.486 -71.5859 264.325C-29.2848 270.121 14.4417 276.111 57.2851 276.111C57.7468 276.111 58.2085 276.111 58.6738 276.109C114.089 275.941 153.535 261.928 192.37 246.333C195.181 245.211 197.965 244.097 200.732 242.989C205.535 241.068 210.276 239.172 214.974 237.299L217.051 236.473C247.151 224.513 275.58 213.216 308.267 205.159C348.897 195.143 393.536 187.159 437.358 182.067C520.366 172.423 596.937 175.258 671.441 190.734C727.816 202.445 783.146 222.099 835.901 249.155C845.819 254.258 855.833 259.48 865.517 264.532C883.299 273.808 901.688 283.4 920.078 292.54C994.08 329.331 1053.98 352.863 1114.28 368.845C1138.06 375.154 1163.02 380.919 1188.48 385.978C1220.65 392.318 1250.81 397.159 1280.67 400.775C1325.99 406.268 1382.4 413.105 1438.57 402.574C1467.45 397.161 1490.88 387.589 1510.19 373.311C1545.57 347.159 1561.97 310.377 1576.45 277.927C1582.74 263.83 1588.68 250.514 1595.61 239.463C1598.31 235.157 1601.02 230.704 1603.63 226.396C1612.41 211.948 1621.49 197.01 1633.15 182.802C1646.3 166.655 1661.61 152.767 1678.64 141.523C1697.94 128.781 1719.03 119.784 1741.3 114.781C1755.6 111.569 1770.25 109.59 1786.1 108.729C1807.32 107.576 1829.91 108.808 1855.16 112.489C1876.52 115.606 1899.42 120.445 1925.17 127.284C1966.7 138.315 2007.11 154.511 2042.04 174.118C2081.02 195.931 2115.61 222.662 2144.85 253.565C2171.18 281.392 2192.64 311.942 2208.61 344.37L2207.47 344.573C2173.74 276.111 2114.7 215.761 2041.23 174.642C2006.39 155.087 1966.09 138.938 1924.68 127.94C1869.2 113.204 1825.21 107.325 1786.21 109.442C1770.46 110.296 1755.92 112.262 1741.72 115.45C1688.72 127.353 1654 158.819 1634.22 183.117C1622.59 197.289 1613.52 212.21 1604.75 226.64C1602.13 230.95 1599.42 235.406 1596.72 239.714C1589.81 250.732 1583.88 264.032 1577.6 278.112C1563.1 310.632 1546.66 347.492 1511.11 373.763C1491.65 388.153 1468.03 397.801 1438.92 403.259C1419.19 406.957 1398.15 408.782 1375.03 408.782Z" fill="#FFE492"/>
<path d="M1400.43 412.335C1361.68 412.335 1324.43 406.354 1292.56 401.238C1262.58 396.426 1232.4 390.412 1200.28 382.855C1174.93 376.845 1150.09 370.166 1126.46 363.001C1055.62 341.546 992.461 310.752 934.767 280.668C922.987 274.526 911.086 268.195 899.581 262.073C883.606 253.572 867.085 244.782 850.531 236.311C797.106 209.047 740.119 190.505 681.158 181.2C604.884 169.165 525.796 171.391 439.376 188.007C394.88 196.561 350.363 208.129 310.634 221.461C279.991 231.741 254.065 244.72 226.618 258.461C224.672 259.434 222.723 260.411 220.762 261.389L219.7 261.921C213.028 265.265 206.128 268.721 199.134 272.191C182.375 280.54 163.919 289.176 142.572 295.774C117.792 303.432 92.8111 307.251 66.192 307.45C19.4684 307.8 -28.153 299.908 -74.2024 292.276C-77.4304 291.741 -80.6437 291.208 -83.8424 290.682C-114.21 285.676 -136.363 282.709 -155.665 281.058C-227.399 274.925 -299.595 272.996 -353.742 275.768L-353.852 274.999C-299.617 272.221 -227.315 274.152 -155.485 280.294C-136.128 281.949 -113.928 284.923 -83.5053 289.938C-80.3066 290.464 -77.0933 290.997 -73.8616 291.534C-27.9001 299.15 19.6296 307.023 66.1737 306.679C123.981 306.248 164.692 288.344 198.313 271.596C205.308 268.127 212.207 264.671 218.879 261.329L219.942 260.796C221.902 259.817 223.851 258.842 225.797 257.869C253.292 244.104 279.262 231.102 310.007 220.787C349.809 207.431 394.411 195.843 438.984 187.274C479.955 179.397 518.439 174.849 556.629 173.37C599.23 171.721 641.235 174.105 681.48 180.456C740.629 189.79 797.784 208.384 851.359 235.723C867.924 244.198 884.449 252.99 900.428 261.494C911.933 267.616 923.826 273.945 935.602 280.085C993.237 310.135 1056.32 340.897 1127.03 362.312C1150.63 369.466 1175.43 376.136 1200.75 382.137C1232.81 389.683 1262.95 395.688 1292.89 400.494C1338.86 407.873 1396.07 417.057 1452.6 407.393C1482.26 402.321 1505.84 392.69 1524.69 377.95C1559.71 350.567 1572.81 311.522 1584.37 277.071C1589.01 263.229 1593.4 250.155 1598.81 239.419C1600.81 235.448 1602.82 231.345 1604.76 227.376C1612.36 211.852 1620.22 195.797 1630.96 180.403C1642.66 163.525 1656.73 148.794 1672.79 136.623C1690.91 122.889 1711.24 112.714 1733.21 106.381C1747.48 102.268 1762.18 99.4177 1778.16 97.6633C1799.69 95.3012 1823.58 95.3805 1849.17 97.8988C1871.57 100.105 1896.07 104.263 1921.99 110.262C1965.14 120.249 2006.86 135.828 2042.66 155.314C2082.65 177.026 2117.51 204.015 2146.27 235.534C2172.25 264.008 2192.52 295.245 2206.49 328.376L2205.24 328.565C2175.64 258.364 2117.6 197.039 2041.8 155.887C2006.12 136.464 1964.53 120.936 1921.53 110.981C1865.79 98.0793 1818.97 93.9694 1778.39 98.4227C1762.53 100.164 1747.93 102.995 1733.77 107.076C1681.49 122.144 1649.65 155.429 1632.15 180.7C1621.43 196.055 1613.58 212.087 1605.99 227.591C1604.05 231.56 1602.04 235.666 1600.04 239.641C1594.65 250.342 1590.26 263.398 1585.63 277.223C1580.06 293.797 1573.76 312.581 1564.61 330.192C1554.13 350.369 1541.4 366.144 1525.71 378.419C1516.64 385.516 1506.21 391.556 1494.71 396.373C1482.35 401.553 1468.3 405.511 1452.95 408.135C1435.38 411.14 1417.75 412.335 1400.43 412.335Z" fill="#FFE492"/>
<path d="M1423.33 416.233C1410.52 416.233 1397.1 415.485 1382.92 413.99C1355 411.047 1328.28 405.706 1304.7 400.998C1274.98 395.061 1243.94 387.675 1212.46 379.048C1187.27 372.105 1162.6 364.519 1139.12 356.497C1071.75 333.5 1013.71 302.921 950.214 268.241C944.572 265.159 938.841 262.015 933.301 258.973C911.482 247 888.923 234.62 865.938 222.922C811.626 195.339 752.859 177.867 691.267 170.99C613.575 162.314 529.427 169.799 441.172 193.239C395.884 205.267 351.407 220.43 312.55 237.092C283.293 249.637 259.209 264.428 233.711 280.089C231.121 281.68 228.519 283.276 225.903 284.879C219.392 288.872 212.379 293.158 205.245 297.448C190.285 306.476 172.053 316.763 150.27 324.584C125.886 333.341 100.843 337.755 73.7142 338.074C24.052 338.662 -26.5005 328.782 -75.3895 319.229L-77.2509 318.865C-101.188 314.19 -126.51 309.466 -149.498 306.597C-219.569 297.856 -292.596 291.787 -355.123 289.508L-355.039 288.685C-292.446 290.965 -219.353 297.039 -149.22 305.789C-126.166 308.666 -100.8 313.397 -76.8258 318.079L-74.9645 318.443C-26.1817 327.974 24.2682 337.83 73.6886 337.247C130.763 336.573 170.181 317.439 204.274 296.861C211.408 292.572 218.414 288.286 224.925 284.295C227.541 282.695 230.142 281.097 232.733 279.507C258.275 263.821 282.402 249.003 311.755 236.416C350.685 219.721 395.247 204.529 440.618 192.479C482.026 181.484 522.773 173.906 561.722 169.962C606.225 165.455 649.896 165.526 691.523 170.173C753.35 177.076 812.334 194.61 866.829 222.288C889.831 233.997 912.402 246.382 934.232 258.361C939.772 261.401 945.503 264.545 951.145 267.627C1014.58 302.274 1072.56 332.82 1139.81 355.778C1163.25 363.786 1187.89 371.361 1213.04 378.295C1244.48 386.909 1275.46 394.284 1305.14 400.212C1351.66 409.506 1409.56 421.07 1466.65 412.209C1497.1 407.483 1520.84 397.795 1539.22 382.588C1573.85 353.937 1583.87 310.753 1591.92 276.053C1595.06 262.537 1598.02 249.772 1602.03 239.381C1603.3 236.106 1604.58 232.731 1605.81 229.466C1612.22 212.507 1618.86 194.969 1628.81 178.01C1644.17 151.618 1673.35 116.313 1725.14 97.9908C1739.45 92.9321 1754.2 89.2074 1770.25 86.6054C1812.24 79.6998 1862.23 81.9341 1918.84 93.2425C1963.61 102.187 2006.64 117.149 2043.3 136.514C2084.3 158.123 2119.43 185.371 2147.71 217.509C2160.69 232.249 2172.15 247.993 2181.8 264.303C2191.01 279.882 2198.61 296.059 2204.38 312.387L2203.04 312.558C2177.59 240.614 2120.53 178.314 2042.39 137.133C2005.87 117.84 1963 102.935 1918.4 94.0239C1862.06 82.7662 1812.33 80.5385 1770.61 87.4001C1754.68 89.9823 1740.03 93.6783 1725.84 98.6996C1674.41 116.894 1645.39 152.018 1630.1 178.281C1620.18 195.196 1613.56 212.71 1607.15 229.647C1605.91 232.911 1604.64 236.288 1603.37 239.566C1599.37 249.921 1596.41 262.669 1593.28 276.166C1589.23 293.627 1584.64 313.417 1576.79 332.095C1567.77 353.559 1555.84 370.234 1540.33 383.072C1531.48 390.396 1521.12 396.573 1509.56 401.429C1497.1 406.662 1482.78 410.558 1466.99 413.006C1453.14 415.159 1438.67 416.233 1423.33 416.233Z" fill="#FFE492"/>
<path d="M1444.44 420.35C1429.08 420.35 1412.89 419.155 1395.6 416.758C1367.58 412.877 1340.62 406.436 1316.83 400.752C1286.88 393.597 1255.87 385.014 1224.64 375.238C1199.62 367.368 1175.1 358.875 1151.79 349.993C1087.62 325.569 1032.59 294.09 974.323 260.766C971.44 259.117 968.556 257.466 965.665 255.815C938.57 240.335 910.555 224.327 881.349 209.534C826.092 181.601 765.544 165.196 701.387 160.776C620.8 155.222 533.857 167.904 442.967 198.465C397.504 213.751 351.868 233.02 314.466 252.72C286.224 267.594 263.573 284.331 239.592 302.052C236.752 304.15 233.905 306.254 231.036 308.363C225.305 312.583 218.487 317.587 211.349 322.705C198.129 332.208 180.117 344.285 157.964 353.37C133.969 363.212 108.87 368.229 81.2325 368.702C58.5155 369.043 33.4463 366.937 4.58844 362.259C-20.1877 358.244 -44.1541 352.996 -70.6743 347.052C-94.8824 341.56 -120.432 335.887 -143.354 332.14C-211.252 321.041 -282.971 311.322 -356.516 303.247L-356.252 302.382C-282.664 310.459 -210.904 320.187 -142.969 331.29C-119.985 335.048 -94.3988 340.73 -70.1613 346.226C-25.7094 356.192 29.6137 368.599 81.1922 367.822C140.161 366.809 178.058 345.267 210.224 322.137C217.358 317.023 224.173 312.022 229.9 307.804C232.769 305.695 235.616 303.591 238.452 301.495C262.473 283.746 285.165 266.98 313.499 252.057C350.978 232.318 396.701 213.012 442.252 197.697C533.417 167.043 620.661 154.328 701.555 159.902C732.571 162.04 763.037 167.004 792.101 174.655C823.285 182.864 853.63 194.375 882.294 208.862C911.533 223.671 939.567 239.688 966.677 255.179C969.568 256.832 972.455 258.481 975.338 260.129C1033.55 293.425 1088.53 324.873 1152.57 349.251C1175.86 358.12 1200.33 366.602 1225.32 374.459C1256.5 384.22 1287.47 392.792 1317.37 399.935C1364.37 411.162 1422.86 425.134 1480.69 417.031C1512.02 412.641 1535.91 402.894 1553.73 387.233C1588.05 357.321 1594.16 311.628 1599.07 274.914C1600.83 261.783 1602.49 249.38 1605.24 239.351C1605.81 237.282 1606.38 235.201 1606.95 233.11C1612.08 214.22 1617.4 194.686 1626.63 175.622C1639.82 148.202 1666.2 111.021 1717.06 89.6064C1731.25 83.6319 1746.05 79.0355 1762.32 75.5529C1784.93 70.6682 1810.13 68.3721 1837.21 68.7244C1861.93 69.0458 1888.33 71.5707 1915.67 76.2266C1962.05 84.1228 2006.4 98.469 2043.92 117.713C2085.93 139.216 2121.33 166.728 2149.14 199.482C2161.9 214.511 2172.94 230.579 2181.97 247.238C2190.62 263.194 2197.45 279.735 2202.26 296.401L2200.82 296.551C2179.84 223.926 2122.3 158.986 2042.97 118.382C2005.61 99.2219 1961.45 84.9351 1915.27 77.0697C1858.32 67.3705 1805.61 67.1328 1762.81 76.3785C1746.66 79.8346 1731.97 84.3958 1717.9 90.324C1667.39 111.591 1641.15 148.58 1628.04 175.864C1618.83 194.877 1613.52 214.383 1608.39 233.249C1607.82 235.34 1607.25 237.423 1606.69 239.492C1603.94 249.484 1602.29 261.871 1600.53 274.982C1595.6 311.802 1589.47 357.627 1554.93 387.731C1546.34 395.279 1536.07 401.597 1524.41 406.504C1511.86 411.783 1497.26 415.613 1481.02 417.889C1469.3 419.527 1457.16 420.35 1444.44 420.35Z" fill="#FFE492"/>
<path d="M1464.27 424.637C1446.77 424.637 1428.24 422.937 1408.27 419.525C1380.01 414.698 1352.88 407.158 1328.95 400.508C1298.71 392.103 1267.71 382.318 1236.81 371.43C1211.97 362.647 1187.62 353.245 1164.44 343.49C1107.36 319.478 1058.59 290.062 1006.94 258.917C998.499 253.825 989.768 248.562 981.106 243.386C950.658 225.203 924.658 210.21 896.749 196.145C840.507 167.843 778.182 152.506 711.5 150.56C627.711 148.114 537.961 165.989 444.748 203.687C398.442 222.416 352.847 245.376 316.365 268.341C288.881 285.641 267.395 304.474 244.649 324.411C241.831 326.881 239.002 329.36 236.155 331.841C231.084 336.268 224.372 342.101 217.443 347.95C188.285 372.623 150.19 398.025 88.7408 399.323C86.8245 399.361 84.9009 399.378 82.981 399.378C34.9969 399.378 -13.9911 387.969 -64.1075 375.23L-67.2366 374.428C-92.0604 368.062 -115.51 362.05 -137.216 357.674C-219.015 341.181 -298.125 327.26 -357.907 316.975L-357.479 316.075C-297.682 326.364 -218.55 340.288 -136.721 356.787C-114.957 361.174 -91.4815 367.195 -66.6248 373.568L-63.4993 374.369C-11.5471 387.575 39.1886 399.354 88.6859 398.39C149.454 397.104 187.23 371.899 216.172 347.411C223.097 341.566 229.802 335.737 234.873 331.313C237.72 328.829 240.545 326.353 243.363 323.883C266.145 303.915 287.664 285.051 315.236 267.696C351.792 244.683 397.479 221.677 443.876 202.91C486.939 185.493 530.017 172.12 571.912 163.158C619.98 152.876 666.971 148.323 711.573 149.624C778.599 151.579 841.24 166.991 897.746 195.426C925.695 209.512 951.721 224.521 982.198 242.719C990.864 247.895 999.595 253.16 1008.04 258.252C1059.63 289.366 1108.37 318.754 1165.33 342.718C1188.48 352.461 1212.79 361.848 1237.59 370.618C1268.45 381.492 1299.4 391.262 1329.6 399.654C1377.01 412.829 1436.01 429.224 1494.73 421.843C1526.82 417.808 1550.87 408.003 1568.23 391.87C1602.11 360.595 1604.15 312.33 1605.79 273.549C1606.32 260.896 1606.83 248.943 1608.45 239.312L1608.48 239.091C1612.11 217.525 1615.85 195.225 1624.45 173.223C1631.89 154.031 1642.25 136.777 1655.25 121.936C1669.91 105.203 1687.98 91.502 1708.96 81.2107C1723 74.3249 1737.86 68.8545 1754.37 64.4893C1798.99 52.6262 1853.66 50.7947 1912.49 59.1972C1936.16 62.5785 1959.51 67.701 1981.9 74.4196C2004.41 81.1777 2025.49 89.4174 2044.54 98.9052C2087.57 120.304 2123.24 148.077 2150.56 181.451C2175.12 211.449 2192.26 245.669 2200.14 280.409L2198.6 280.534C2181.74 206.181 2125.23 140.242 2043.54 99.625C2005.35 80.6009 1959.9 66.935 1912.13 60.113C1853.64 51.7589 1799.31 53.5706 1755.01 65.3522C1738.62 69.6845 1723.89 75.1108 1709.95 81.9416C1670.77 101.157 1641.73 132.797 1625.97 173.441C1617.4 195.386 1613.66 217.655 1610.04 239.191L1610 239.411C1608.39 249.006 1607.88 260.942 1607.35 273.578C1605.7 312.478 1603.66 360.888 1569.53 392.382C1561.16 400.162 1550.96 406.616 1539.23 411.565C1526.58 416.901 1511.72 420.668 1495.04 422.765C1485.11 424.011 1474.88 424.637 1464.27 424.637Z" fill="#FFE492"/>
<path d="M89.8798 430.027C68.4233 430.027 45.0578 427.515 18.6879 422.386C-7.51355 417.29 -33.4256 410.255 -57.5275 403.413C-61.8914 402.167 -66.2222 400.923 -70.5238 399.688C-91.9363 393.54 -112.162 387.733 -131.064 383.209C-206.437 365.178 -278.281 348.971 -347.762 333.302L-359.274 330.704L-358.696 329.778L-347.183 332.375C-277.699 348.049 -205.843 364.255 -130.456 382.291C-111.502 386.826 -91.2512 392.639 -69.813 398.797C-65.515 400.032 -61.1842 401.275 -56.824 402.519C-7.34872 416.564 45.2154 430.175 96.1966 428.962C158.866 427.394 196.422 398.064 222.136 372.689C228.724 366.199 235.07 359.731 239.863 354.822C242.508 352.117 245.135 349.414 247.755 346.717C269.483 324.362 290.005 303.247 316.994 283.338C352.62 257.063 398.262 230.351 445.521 208.129C489.365 187.511 533.608 171.221 577.026 159.712C626.828 146.511 675.471 139.66 721.605 139.35C791.024 138.729 855.499 153.078 913.215 181.992C945.209 198.04 973.895 215.4 997.74 230.266C1010.71 238.356 1023.69 246.648 1036.24 254.668C1080.66 283.058 1126.59 312.413 1178.1 336.19C1201.11 346.814 1225.27 357.107 1249.88 366.782C1280.35 378.729 1311.29 389.696 1341.85 399.378C1389.61 414.51 1449.05 433.342 1508.77 426.659C1541.64 422.981 1565.84 413.119 1582.74 396.509C1616.18 363.817 1613.92 312.909 1612.1 272.003C1611.57 259.907 1611.06 248.48 1611.67 239.28C1613.04 218.541 1615.11 194.439 1622.28 170.831C1628.33 150.828 1637.45 132.73 1649.4 117.044C1662.92 99.2986 1680.25 84.4218 1700.89 72.8251C1714.57 65.1402 1729.9 58.6176 1746.45 53.4356C1770.06 46.0171 1796.57 41.3524 1825.22 39.5737C1852.06 37.9073 1880.35 38.7835 1909.32 42.1757C1933.74 45.0375 1957.82 49.744 1980.88 56.1675C2004.08 62.6307 2025.71 70.6832 2045.17 80.1006C2067.6 90.9444 2088.22 103.75 2106.47 118.162C2123.75 131.817 2139.07 147.046 2152 163.424C2176.19 194.064 2192.11 228.991 2198.03 264.422L2196.39 264.521C2183.67 188.436 2128.18 121.499 2044.13 80.8733C2005.64 62.2454 1957.66 48.848 1909 43.1487C1848.84 36.1022 1792.9 39.9634 1747.21 54.314C1730.79 59.4541 1715.58 65.9261 1702.01 73.5494C1663.12 95.4 1636.83 128.189 1623.9 171.01C1616.75 194.553 1614.68 218.614 1613.31 239.32C1612.71 248.486 1613.21 259.896 1613.75 271.977C1614.64 292.157 1615.66 315.031 1612.26 337.143C1608.31 362.802 1599.12 382.39 1584.15 397.027C1576 405.035 1565.88 411.628 1554.07 416.621C1541.32 422.014 1526.18 425.719 1509.08 427.632C1500.45 428.598 1491.83 429.037 1483.26 429.037C1431.93 429.037 1382.2 413.279 1341.08 400.252C1310.48 390.555 1279.49 379.572 1248.99 367.608C1224.33 357.92 1200.14 347.611 1177.1 336.972C1125.48 313.146 1079.5 283.761 1035.04 255.343C1022.49 247.326 1009.52 239.036 996.557 230.95C972.744 216.102 944.099 198.767 912.163 182.75C854.759 153.989 790.661 139.724 721.631 140.336C613.223 141.067 512.199 178.025 446.539 208.904C399.376 231.082 353.825 257.736 318.277 283.959C291.368 303.808 270.875 324.891 249.181 347.21C246.561 349.907 243.93 352.61 241.285 355.318C236.488 360.229 230.139 366.701 223.547 373.197C212.753 383.849 195.807 399.356 173.361 410.979C162.46 416.623 150.86 421.059 138.882 424.165C125.527 427.628 111.186 429.574 96.2662 429.946C94.1521 430.001 92.0233 430.027 89.8798 430.027Z" fill="#FFE492"/>
<path d="M96.7689 460.675C75.2867 460.675 51.9689 457.97 25.7381 452.449C-1.41959 446.734 -28.2696 438.699 -50.9499 431.591C-57.9189 429.403 -64.8731 427.184 -71.6003 425.037C-90.4041 419.039 -108.167 413.37 -124.915 408.743C-185.06 392.123 -244.813 375.897 -302.602 360.203C-321.717 355.012 -341.481 349.646 -360.637 344.433L-359.919 343.48C-340.763 348.692 -320.999 354.059 -301.884 359.25C-244.095 374.943 -184.335 391.172 -124.186 407.794C-107.394 412.435 -89.609 418.107 -70.7832 424.115C-64.0598 426.261 -57.1054 428.478 -50.1438 430.666C-3.10507 445.402 51.4559 461.001 103.701 459.533C167.847 457.688 203.876 425.66 228.102 397.965C234.313 390.87 240.318 383.747 244.854 378.333C247.184 375.555 249.5 372.779 251.812 370.01C272.594 345.102 292.222 321.576 318.757 298.984C353.269 269.6 398.875 239.188 447.167 213.351C514.42 177.524 618.364 133.823 731.634 129.084C803.669 125.988 869.969 139.271 928.685 168.567C955.066 181.735 981.154 196.925 1013.28 217.822C1029.52 228.382 1045.63 239.327 1061.21 249.909C1101.74 277.441 1143.65 305.911 1190.88 329.675C1213.75 341.19 1237.74 352.388 1262.17 362.959C1291.76 375.747 1322.68 387.912 1354.09 399.116C1402.34 416.223 1462.38 437.517 1522.82 431.489C1555.95 428.254 1580.99 418.05 1597.25 401.166C1630.22 366.994 1623.15 311.089 1617.98 270.269C1616.53 258.813 1615.16 247.994 1614.89 239.265C1614.29 219.867 1614.34 194.29 1620.12 168.457C1630.09 123.692 1654.55 88.6998 1692.81 64.4563C1706.22 55.9151 1721.61 48.4944 1738.52 42.3988C1762.59 33.7167 1789.74 27.8765 1819.23 25.0434C1847.02 22.3753 1876.26 22.4172 1906.14 25.1689C1931.36 27.5419 1956.16 31.8434 1979.85 37.9499C2003.78 44.1181 2025.96 51.9769 2045.8 61.3084C2068.73 72.0906 2089.68 84.9399 2108.06 99.5018C2125.49 113.302 2140.75 128.747 2153.44 145.411C2177.26 176.697 2191.95 212.328 2195.92 248.452L2194.18 248.52C2185.62 170.698 2131.15 102.762 2044.73 62.1339C2005.55 43.702 1956.23 30.9408 1905.88 26.2035C1843.81 20.491 1786.25 26.4016 1739.42 43.297C1722.64 49.3419 1707.39 56.7032 1694.08 65.1762C1656.07 89.2589 1631.77 124.053 1621.85 168.598C1616.09 194.36 1616.04 219.887 1616.63 239.248C1616.91 247.945 1618.27 258.752 1619.72 270.192C1622.39 291.292 1625.42 315.21 1623.69 338.56C1621.67 365.748 1613.52 386.399 1598.76 401.692C1590.82 409.94 1580.78 416.677 1568.91 421.713C1556.05 427.175 1540.64 430.811 1523.11 432.524C1495.92 435.234 1466.66 432.799 1433.65 425.079C1404.96 418.367 1377.47 408.62 1353.21 400.021C1321.76 388.801 1290.79 376.619 1261.16 363.813C1236.69 353.227 1212.67 342.013 1189.76 330.483C1142.44 306.671 1100.48 278.17 1059.9 250.609C1044.33 240.029 1028.23 229.091 1012.01 218.54C979.934 197.68 953.894 182.519 927.575 169.381C869.207 140.253 803.328 127.049 731.751 130.125C618.969 134.847 515.369 178.414 448.317 214.133C400.121 239.917 354.61 270.265 320.172 299.587C293.71 322.115 274.111 345.608 253.362 370.479C251.05 373.251 248.734 376.026 246.404 378.805C241.864 384.222 235.855 391.352 229.637 398.454C205.198 426.396 168.807 458.709 103.778 460.578C101.466 460.642 99.1248 460.675 96.7689 460.675Z" fill="#FFE492"/>
<path d="M103.796 491.324C45.0986 491.324 -16.49 469.665 -71.0876 450.462C-87.8651 444.563 -103.712 438.989 -118.771 434.276L-362 358.16L-361.154 357.185L-117.925 433.301C-102.825 438.025 -86.9601 443.605 -70.1606 449.514C-13.4525 469.458 50.8254 492.064 111.205 490.104C176.765 487.98 211.302 453.256 234.067 423.245C241.512 413.429 248.701 403.442 255.655 393.782C274.675 367.366 294.34 340.049 320.512 314.626C341.294 294.44 367.111 273.269 395.17 253.406C425.952 231.615 458.91 211.623 493.121 193.985C530.842 174.541 569.197 158.456 607.116 146.179C649.058 132.601 690.377 123.736 729.934 119.829C809.176 112.003 881.247 123.879 944.14 155.132C996.407 181.101 1040.83 213.214 1083.79 244.271C1121.19 271.303 1159.85 299.254 1203.64 323.147C1254.21 350.744 1308.95 376.211 1366.33 398.839C1414.68 417.904 1474.85 441.635 1536.86 436.301C1589.24 431.797 1619.52 410.744 1629.43 371.934C1637.87 338.922 1629.84 299.763 1623.4 268.299C1621.2 257.576 1619.13 247.447 1618.11 239.234C1612.49 193.957 1616.07 156.58 1629.06 124.971C1637.16 105.249 1649.12 87.6691 1664.6 72.7198C1681.89 56.0203 1704.09 42.099 1730.59 31.3432C1753.5 22.0381 1779.33 15.28 1807.36 11.2559C1834.04 7.42554 1862.12 6.14216 1890.84 7.44096C1947.32 9.99452 2002.57 22.4454 2046.41 42.4974C2069.84 53.2158 2091.12 66.1113 2109.65 80.8229C2127.21 94.7663 2142.42 110.429 2154.86 127.379C2178.3 159.31 2191.76 195.647 2193.79 232.461L2191.96 232.498C2187.64 154.104 2132.81 83.4029 2045.3 43.3758C1952.36 0.867724 1820.43 -3.81014 1731.6 32.2568C1643.61 67.9847 1607.08 135.661 1619.93 239.153C1620.94 247.34 1623.02 257.455 1625.21 268.164C1631.67 299.696 1639.71 338.94 1631.24 372.101C1626.62 390.163 1617.35 404.679 1603.67 415.247C1595.97 421.189 1586.7 426.045 1576.1 429.677C1564.82 433.543 1551.7 436.138 1537.12 437.393C1531.16 437.906 1525.09 438.164 1518.93 438.164C1496.45 438.164 1472.52 434.749 1446.29 427.833C1416.74 420.04 1388.23 408.795 1365.32 399.761C1307.86 377.1 1253.05 351.6 1202.4 323.964C1158.51 300.02 1119.81 272.036 1082.37 244.975C1039.47 213.958 995.099 181.885 942.964 155.981C880.492 124.942 808.915 113.143 730.22 120.916C571.032 136.638 407.053 232.652 322.058 315.207C295.956 340.56 276.317 367.839 257.322 394.22C250.364 403.884 243.172 413.878 235.719 423.703C220.605 443.627 205.678 457.894 188.743 468.597C178.172 475.276 166.704 480.542 154.657 484.247C141.261 488.365 126.671 490.708 111.289 491.207C108.805 491.284 106.302 491.324 103.796 491.324Z" fill="#FFE492"/>
</g>
</svg>
