<svg width="1920" height="486" viewBox="0 0 1920 486" fill="none" xmlns="http://www.w3.org/2000/svg">
<path d="M103.796 485.324C45.0986 485.324 -16.49 463.665 -71.0876 444.462C-87.8651 438.563 -103.712 432.989 -118.771 428.276L-362 352.16L-361.154 351.185L-117.925 427.301C-102.825 432.025 -86.9601 437.605 -70.1606 443.514C-13.4525 463.458 50.8254 486.064 111.205 484.104C176.765 481.98 211.302 447.256 234.067 417.245C241.512 407.429 248.701 397.442 255.655 387.782C274.675 361.366 294.34 334.049 320.512 308.626C341.294 288.44 367.111 267.269 395.17 247.406C425.952 225.615 458.91 205.623 493.121 187.985C530.842 168.541 569.197 152.456 607.116 140.179C649.058 126.601 690.377 117.736 729.934 113.829C809.176 106.003 881.247 117.879 944.14 149.132C996.407 175.101 1040.83 207.214 1083.79 238.271C1121.19 265.303 1159.85 293.254 1203.64 317.147C1254.21 344.744 1308.95 370.211 1366.33 392.839C1414.68 411.904 1474.85 435.635 1536.86 430.301C1589.24 425.797 1619.52 404.744 1629.43 365.934C1637.87 332.922 1629.84 293.763 1623.4 262.299C1621.2 251.576 1619.13 241.447 1618.11 233.234C1612.49 187.957 1616.07 150.58 1629.06 118.971C1637.16 99.2491 1649.12 81.6691 1664.6 66.7198C1681.89 50.0203 1704.09 36.099 1730.59 25.3432C1753.5 16.0381 1779.33 9.27996 1807.36 5.25589C1834.04 1.42554 1862.12 0.142161 1890.84 1.44096C1947.32 3.99452 2002.57 16.4454 2046.41 36.4974C2069.84 47.2158 2091.12 60.1113 2109.65 74.8229C2127.21 88.7663 2142.42 104.429 2154.86 121.379C2178.3 153.31 2191.76 189.647 2193.79 226.461L2191.96 226.498C2187.64 148.104 2132.81 77.4029 2045.3 37.3758C1952.36 -5.13228 1820.43 -9.81014 1731.6 26.2568C1643.61 61.9847 1607.08 129.661 1619.93 233.153C1620.94 241.34 1623.02 251.455 1625.21 262.164C1631.67 293.696 1639.71 332.94 1631.24 366.101C1626.62 384.163 1617.35 398.679 1603.67 409.247C1595.97 415.189 1586.7 420.045 1576.1 423.677C1564.82 427.543 1551.7 430.138 1537.12 431.393C1531.16 431.906 1525.09 432.164 1518.93 432.164C1496.45 432.164 1472.52 428.749 1446.29 421.833C1416.74 414.04 1388.23 402.795 1365.32 393.761C1307.86 371.1 1253.05 345.6 1202.4 317.964C1158.51 294.02 1119.81 266.036 1082.37 238.975C1039.47 207.958 995.099 175.885 942.964 149.981C880.492 118.942 808.915 107.143 730.22 114.916C571.032 130.638 407.053 226.652 322.058 309.207C295.956 334.56 276.317 361.839 257.322 388.22C250.364 397.884 243.172 407.878 235.719 417.703C220.605 437.627 205.678 451.894 188.743 462.597C178.172 469.276 166.704 474.542 154.657 478.247C141.261 482.365 126.671 484.708 111.289 485.207C108.805 485.284 106.302 485.324 103.796 485.324Z" fill="#FFE492"/>
</svg>
